G04 #@! TF.GenerationSoftware,KiCad,Pcbnew,(6.0.0)*
G04 #@! TF.CreationDate,2022-01-24T22:50:09+01:00*
G04 #@! TF.ProjectId,PUTM_EV_Front_Box_2022,5055544d-5f45-4565-9f46-726f6e745f42,rev?*
G04 #@! TF.SameCoordinates,Original*
G04 #@! TF.FileFunction,Soldermask,Bot*
G04 #@! TF.FilePolarity,Negative*
%FSLAX46Y46*%
G04 Gerber Fmt 4.6, Leading zero omitted, Abs format (unit mm)*
G04 Created by KiCad (PCBNEW (6.0.0)) date 2022-01-24 22:50:09*
%MOMM*%
%LPD*%
G01*
G04 APERTURE LIST*
%ADD10R,1.700000X1.700000*%
%ADD11O,1.700000X1.700000*%
%ADD12R,2.600000X0.280000*%
%ADD13C,3.400000*%
%ADD14C,2.500000*%
G04 APERTURE END LIST*
D10*
X84725000Y-145000000D03*
D11*
X87265000Y-145000000D03*
X84725000Y-147540000D03*
X87265000Y-147540000D03*
X84725000Y-150080000D03*
X87265000Y-150080000D03*
X84725000Y-152620000D03*
X87265000Y-152620000D03*
X84725000Y-155160000D03*
X87265000Y-155160000D03*
X84725000Y-157700000D03*
X87265000Y-157700000D03*
X84725000Y-160240000D03*
X87265000Y-160240000D03*
D10*
X104350000Y-165500000D03*
D11*
X106890000Y-165500000D03*
D10*
X68375000Y-145000000D03*
D11*
X70915000Y-145000000D03*
X68375000Y-147540000D03*
X70915000Y-147540000D03*
X68375000Y-150080000D03*
X70915000Y-150080000D03*
X68375000Y-152620000D03*
X70915000Y-152620000D03*
X68375000Y-155160000D03*
X70915000Y-155160000D03*
X68375000Y-157700000D03*
X70915000Y-157700000D03*
X68375000Y-160240000D03*
X70915000Y-160240000D03*
D10*
X52075000Y-145000000D03*
D11*
X54615000Y-145000000D03*
X52075000Y-147540000D03*
X54615000Y-147540000D03*
X52075000Y-150080000D03*
X54615000Y-150080000D03*
X52075000Y-152620000D03*
X54615000Y-152620000D03*
X52075000Y-155160000D03*
X54615000Y-155160000D03*
X52075000Y-157700000D03*
X54615000Y-157700000D03*
X52075000Y-160240000D03*
X54615000Y-160240000D03*
D10*
X76525000Y-145000000D03*
D11*
X79065000Y-145000000D03*
X76525000Y-147540000D03*
X79065000Y-147540000D03*
X76525000Y-150080000D03*
X79065000Y-150080000D03*
X76525000Y-152620000D03*
X79065000Y-152620000D03*
X76525000Y-155160000D03*
X79065000Y-155160000D03*
X76525000Y-157700000D03*
X79065000Y-157700000D03*
X76525000Y-160240000D03*
X79065000Y-160240000D03*
D10*
X60225000Y-145000000D03*
D11*
X62765000Y-145000000D03*
X60225000Y-147540000D03*
X62765000Y-147540000D03*
X60225000Y-150080000D03*
X62765000Y-150080000D03*
X60225000Y-152620000D03*
X62765000Y-152620000D03*
X60225000Y-155160000D03*
X62765000Y-155160000D03*
X60225000Y-157700000D03*
X62765000Y-157700000D03*
X60225000Y-160240000D03*
X62765000Y-160240000D03*
D12*
X99800000Y-156800000D03*
X99800000Y-156300000D03*
X99800000Y-155800000D03*
X99800000Y-155300000D03*
X99800000Y-154800000D03*
X99800000Y-154300000D03*
X99800000Y-153800000D03*
X99800000Y-153300000D03*
X99800000Y-152800000D03*
X99800000Y-152300000D03*
X99800000Y-151800000D03*
X99800000Y-151300000D03*
X99800000Y-150800000D03*
X99800000Y-150300000D03*
X99800000Y-149800000D03*
X99800000Y-149300000D03*
X99800000Y-148800000D03*
X99800000Y-148300000D03*
X99800000Y-147800000D03*
D13*
X100600000Y-145050000D03*
X100600000Y-159550000D03*
D14*
X106600000Y-145050000D03*
X106600000Y-159550000D03*
M02*
