G04 #@! TF.GenerationSoftware,KiCad,Pcbnew,(6.0.0)*
G04 #@! TF.CreationDate,2022-01-24T22:50:09+01:00*
G04 #@! TF.ProjectId,PUTM_EV_Front_Box_2022,5055544d-5f45-4565-9f46-726f6e745f42,rev?*
G04 #@! TF.SameCoordinates,Original*
G04 #@! TF.FileFunction,Legend,Top*
G04 #@! TF.FilePolarity,Positive*
%FSLAX46Y46*%
G04 Gerber Fmt 4.6, Leading zero omitted, Abs format (unit mm)*
G04 Created by KiCad (PCBNEW (6.0.0)) date 2022-01-24 22:50:09*
%MOMM*%
%LPD*%
G01*
G04 APERTURE LIST*
%ADD10C,0.150000*%
%ADD11C,0.120000*%
%ADD12R,1.700000X1.700000*%
%ADD13O,1.700000X1.700000*%
%ADD14C,3.400000*%
%ADD15C,2.500000*%
G04 APERTURE END LIST*
D10*
X85661666Y-142122380D02*
X85661666Y-142836666D01*
X85614047Y-142979523D01*
X85518809Y-143074761D01*
X85375952Y-143122380D01*
X85280714Y-143122380D01*
X86280714Y-142550952D02*
X86185476Y-142503333D01*
X86137857Y-142455714D01*
X86090238Y-142360476D01*
X86090238Y-142312857D01*
X86137857Y-142217619D01*
X86185476Y-142170000D01*
X86280714Y-142122380D01*
X86471190Y-142122380D01*
X86566428Y-142170000D01*
X86614047Y-142217619D01*
X86661666Y-142312857D01*
X86661666Y-142360476D01*
X86614047Y-142455714D01*
X86566428Y-142503333D01*
X86471190Y-142550952D01*
X86280714Y-142550952D01*
X86185476Y-142598571D01*
X86137857Y-142646190D01*
X86090238Y-142741428D01*
X86090238Y-142931904D01*
X86137857Y-143027142D01*
X86185476Y-143074761D01*
X86280714Y-143122380D01*
X86471190Y-143122380D01*
X86566428Y-143074761D01*
X86614047Y-143027142D01*
X86661666Y-142931904D01*
X86661666Y-142741428D01*
X86614047Y-142646190D01*
X86566428Y-142598571D01*
X86471190Y-142550952D01*
X101472380Y-165833333D02*
X102186666Y-165833333D01*
X102329523Y-165880952D01*
X102424761Y-165976190D01*
X102472380Y-166119047D01*
X102472380Y-166214285D01*
X102472380Y-165309523D02*
X102472380Y-165119047D01*
X102424761Y-165023809D01*
X102377142Y-164976190D01*
X102234285Y-164880952D01*
X102043809Y-164833333D01*
X101662857Y-164833333D01*
X101567619Y-164880952D01*
X101520000Y-164928571D01*
X101472380Y-165023809D01*
X101472380Y-165214285D01*
X101520000Y-165309523D01*
X101567619Y-165357142D01*
X101662857Y-165404761D01*
X101900952Y-165404761D01*
X101996190Y-165357142D01*
X102043809Y-165309523D01*
X102091428Y-165214285D01*
X102091428Y-165023809D01*
X102043809Y-164928571D01*
X101996190Y-164880952D01*
X101900952Y-164833333D01*
X68835476Y-142122380D02*
X68835476Y-142836666D01*
X68787857Y-142979523D01*
X68692619Y-143074761D01*
X68549761Y-143122380D01*
X68454523Y-143122380D01*
X69835476Y-143122380D02*
X69264047Y-143122380D01*
X69549761Y-143122380D02*
X69549761Y-142122380D01*
X69454523Y-142265238D01*
X69359285Y-142360476D01*
X69264047Y-142408095D01*
X70454523Y-142122380D02*
X70549761Y-142122380D01*
X70645000Y-142170000D01*
X70692619Y-142217619D01*
X70740238Y-142312857D01*
X70787857Y-142503333D01*
X70787857Y-142741428D01*
X70740238Y-142931904D01*
X70692619Y-143027142D01*
X70645000Y-143074761D01*
X70549761Y-143122380D01*
X70454523Y-143122380D01*
X70359285Y-143074761D01*
X70311666Y-143027142D01*
X70264047Y-142931904D01*
X70216428Y-142741428D01*
X70216428Y-142503333D01*
X70264047Y-142312857D01*
X70311666Y-142217619D01*
X70359285Y-142170000D01*
X70454523Y-142122380D01*
X52535476Y-142122380D02*
X52535476Y-142836666D01*
X52487857Y-142979523D01*
X52392619Y-143074761D01*
X52249761Y-143122380D01*
X52154523Y-143122380D01*
X53535476Y-143122380D02*
X52964047Y-143122380D01*
X53249761Y-143122380D02*
X53249761Y-142122380D01*
X53154523Y-142265238D01*
X53059285Y-142360476D01*
X52964047Y-142408095D01*
X54487857Y-143122380D02*
X53916428Y-143122380D01*
X54202142Y-143122380D02*
X54202142Y-142122380D01*
X54106904Y-142265238D01*
X54011666Y-142360476D01*
X53916428Y-142408095D01*
X76985476Y-142122380D02*
X76985476Y-142836666D01*
X76937857Y-142979523D01*
X76842619Y-143074761D01*
X76699761Y-143122380D01*
X76604523Y-143122380D01*
X77985476Y-143122380D02*
X77414047Y-143122380D01*
X77699761Y-143122380D02*
X77699761Y-142122380D01*
X77604523Y-142265238D01*
X77509285Y-142360476D01*
X77414047Y-142408095D01*
X78366428Y-142217619D02*
X78414047Y-142170000D01*
X78509285Y-142122380D01*
X78747380Y-142122380D01*
X78842619Y-142170000D01*
X78890238Y-142217619D01*
X78937857Y-142312857D01*
X78937857Y-142408095D01*
X78890238Y-142550952D01*
X78318809Y-143122380D01*
X78937857Y-143122380D01*
X60685476Y-142122380D02*
X60685476Y-142836666D01*
X60637857Y-142979523D01*
X60542619Y-143074761D01*
X60399761Y-143122380D01*
X60304523Y-143122380D01*
X61685476Y-143122380D02*
X61114047Y-143122380D01*
X61399761Y-143122380D02*
X61399761Y-142122380D01*
X61304523Y-142265238D01*
X61209285Y-142360476D01*
X61114047Y-142408095D01*
X62018809Y-142122380D02*
X62637857Y-142122380D01*
X62304523Y-142503333D01*
X62447380Y-142503333D01*
X62542619Y-142550952D01*
X62590238Y-142598571D01*
X62637857Y-142693809D01*
X62637857Y-142931904D01*
X62590238Y-143027142D01*
X62542619Y-143074761D01*
X62447380Y-143122380D01*
X62161666Y-143122380D01*
X62066428Y-143074761D01*
X62018809Y-143027142D01*
D11*
X83395000Y-145000000D02*
X83395000Y-143670000D01*
X83395000Y-146270000D02*
X85995000Y-146270000D01*
X83395000Y-161570000D02*
X88595000Y-161570000D01*
X83395000Y-146270000D02*
X83395000Y-161570000D01*
X83395000Y-143670000D02*
X84725000Y-143670000D01*
X85995000Y-146270000D02*
X85995000Y-143670000D01*
X85995000Y-143670000D02*
X88595000Y-143670000D01*
X88595000Y-143670000D02*
X88595000Y-161570000D01*
X105620000Y-166830000D02*
X108220000Y-166830000D01*
X104350000Y-166830000D02*
X103020000Y-166830000D01*
X103020000Y-166830000D02*
X103020000Y-165500000D01*
X108220000Y-166830000D02*
X108220000Y-164170000D01*
X105620000Y-164170000D02*
X108220000Y-164170000D01*
X105620000Y-166830000D02*
X105620000Y-164170000D01*
X69645000Y-143670000D02*
X72245000Y-143670000D01*
X67045000Y-143670000D02*
X68375000Y-143670000D01*
X69645000Y-146270000D02*
X69645000Y-143670000D01*
X67045000Y-161570000D02*
X72245000Y-161570000D01*
X67045000Y-146270000D02*
X69645000Y-146270000D01*
X72245000Y-143670000D02*
X72245000Y-161570000D01*
X67045000Y-145000000D02*
X67045000Y-143670000D01*
X67045000Y-146270000D02*
X67045000Y-161570000D01*
X50745000Y-143670000D02*
X52075000Y-143670000D01*
X50745000Y-145000000D02*
X50745000Y-143670000D01*
X50745000Y-146270000D02*
X50745000Y-161570000D01*
X55945000Y-143670000D02*
X55945000Y-161570000D01*
X53345000Y-143670000D02*
X55945000Y-143670000D01*
X53345000Y-146270000D02*
X53345000Y-143670000D01*
X50745000Y-146270000D02*
X53345000Y-146270000D01*
X50745000Y-161570000D02*
X55945000Y-161570000D01*
X75195000Y-161570000D02*
X80395000Y-161570000D01*
X77795000Y-143670000D02*
X80395000Y-143670000D01*
X75195000Y-145000000D02*
X75195000Y-143670000D01*
X75195000Y-143670000D02*
X76525000Y-143670000D01*
X80395000Y-143670000D02*
X80395000Y-161570000D01*
X77795000Y-146270000D02*
X77795000Y-143670000D01*
X75195000Y-146270000D02*
X75195000Y-161570000D01*
X75195000Y-146270000D02*
X77795000Y-146270000D01*
X58895000Y-146270000D02*
X58895000Y-161570000D01*
X61495000Y-143670000D02*
X64095000Y-143670000D01*
X58895000Y-146270000D02*
X61495000Y-146270000D01*
X58895000Y-161570000D02*
X64095000Y-161570000D01*
X61495000Y-146270000D02*
X61495000Y-143670000D01*
X64095000Y-143670000D02*
X64095000Y-161570000D01*
X58895000Y-145000000D02*
X58895000Y-143670000D01*
X58895000Y-143670000D02*
X60225000Y-143670000D01*
%LPC*%
D12*
X84725000Y-145000000D03*
D13*
X87265000Y-145000000D03*
X84725000Y-147540000D03*
X87265000Y-147540000D03*
X84725000Y-150080000D03*
X87265000Y-150080000D03*
X84725000Y-152620000D03*
X87265000Y-152620000D03*
X84725000Y-155160000D03*
X87265000Y-155160000D03*
X84725000Y-157700000D03*
X87265000Y-157700000D03*
X84725000Y-160240000D03*
X87265000Y-160240000D03*
D12*
X104350000Y-165500000D03*
D13*
X106890000Y-165500000D03*
D12*
X68375000Y-145000000D03*
D13*
X70915000Y-145000000D03*
X68375000Y-147540000D03*
X70915000Y-147540000D03*
X68375000Y-150080000D03*
X70915000Y-150080000D03*
X68375000Y-152620000D03*
X70915000Y-152620000D03*
X68375000Y-155160000D03*
X70915000Y-155160000D03*
X68375000Y-157700000D03*
X70915000Y-157700000D03*
X68375000Y-160240000D03*
X70915000Y-160240000D03*
D12*
X52075000Y-145000000D03*
D13*
X54615000Y-145000000D03*
X52075000Y-147540000D03*
X54615000Y-147540000D03*
X52075000Y-150080000D03*
X54615000Y-150080000D03*
X52075000Y-152620000D03*
X54615000Y-152620000D03*
X52075000Y-155160000D03*
X54615000Y-155160000D03*
X52075000Y-157700000D03*
X54615000Y-157700000D03*
X52075000Y-160240000D03*
X54615000Y-160240000D03*
D12*
X76525000Y-145000000D03*
D13*
X79065000Y-145000000D03*
X76525000Y-147540000D03*
X79065000Y-147540000D03*
X76525000Y-150080000D03*
X79065000Y-150080000D03*
X76525000Y-152620000D03*
X79065000Y-152620000D03*
X76525000Y-155160000D03*
X79065000Y-155160000D03*
X76525000Y-157700000D03*
X79065000Y-157700000D03*
X76525000Y-160240000D03*
X79065000Y-160240000D03*
D12*
X60225000Y-145000000D03*
D13*
X62765000Y-145000000D03*
X60225000Y-147540000D03*
X62765000Y-147540000D03*
X60225000Y-150080000D03*
X62765000Y-150080000D03*
X60225000Y-152620000D03*
X62765000Y-152620000D03*
X60225000Y-155160000D03*
X62765000Y-155160000D03*
X60225000Y-157700000D03*
X62765000Y-157700000D03*
X60225000Y-160240000D03*
X62765000Y-160240000D03*
D14*
X100600000Y-145050000D03*
X100600000Y-159550000D03*
D15*
X106600000Y-145050000D03*
X106600000Y-159550000D03*
M02*
