G04 #@! TF.GenerationSoftware,KiCad,Pcbnew,(6.0.0)*
G04 #@! TF.CreationDate,2022-01-24T22:50:09+01:00*
G04 #@! TF.ProjectId,PUTM_EV_Front_Box_2022,5055544d-5f45-4565-9f46-726f6e745f42,rev?*
G04 #@! TF.SameCoordinates,Original*
G04 #@! TF.FileFunction,Legend,Bot*
G04 #@! TF.FilePolarity,Positive*
%FSLAX46Y46*%
G04 Gerber Fmt 4.6, Leading zero omitted, Abs format (unit mm)*
G04 Created by KiCad (PCBNEW (6.0.0)) date 2022-01-24 22:50:09*
%MOMM*%
%LPD*%
G01*
G04 APERTURE LIST*
%ADD10C,0.254000*%
%ADD11C,0.010000*%
%ADD12R,1.700000X1.700000*%
%ADD13O,1.700000X1.700000*%
%ADD14R,2.600000X0.280000*%
%ADD15C,3.400000*%
%ADD16C,2.500000*%
G04 APERTURE END LIST*
D10*
X104071793Y-151514336D02*
X104978936Y-151514336D01*
X105160365Y-151453860D01*
X105281317Y-151332908D01*
X105341793Y-151151479D01*
X105341793Y-151030527D01*
X104071793Y-151998146D02*
X104071793Y-152844812D01*
X105341793Y-152300527D01*
X111150000Y-144800000D02*
X111150000Y-159800000D01*
X111150000Y-159800000D02*
X108348000Y-159800000D01*
X111150000Y-144800000D02*
X108348000Y-144800000D01*
X98100000Y-156854000D02*
G75*
G03*
X98100000Y-156854000I-114000J0D01*
G01*
D11*
X233532915Y-92280106D02*
X233532675Y-92134635D01*
X233532675Y-92134635D02*
X233532263Y-92007889D01*
X233532263Y-92007889D02*
X233531668Y-91899069D01*
X233531668Y-91899069D02*
X233530879Y-91807379D01*
X233530879Y-91807379D02*
X233529886Y-91732021D01*
X233529886Y-91732021D02*
X233528679Y-91672197D01*
X233528679Y-91672197D02*
X233527247Y-91627110D01*
X233527247Y-91627110D02*
X233525580Y-91595963D01*
X233525580Y-91595963D02*
X233523666Y-91577958D01*
X233523666Y-91577958D02*
X233521546Y-91572294D01*
X233521546Y-91572294D02*
X233509838Y-91575576D01*
X233509838Y-91575576D02*
X233480991Y-91584960D01*
X233480991Y-91584960D02*
X233437017Y-91599757D01*
X233437017Y-91599757D02*
X233379929Y-91619275D01*
X233379929Y-91619275D02*
X233311738Y-91642824D01*
X233311738Y-91642824D02*
X233234458Y-91669714D01*
X233234458Y-91669714D02*
X233150099Y-91699254D01*
X233150099Y-91699254D02*
X233092240Y-91719614D01*
X233092240Y-91719614D02*
X233004517Y-91750483D01*
X233004517Y-91750483D02*
X232922710Y-91779156D01*
X232922710Y-91779156D02*
X232848807Y-91804946D01*
X232848807Y-91804946D02*
X232784797Y-91827163D01*
X232784797Y-91827163D02*
X232732667Y-91845119D01*
X232732667Y-91845119D02*
X232694406Y-91858126D01*
X232694406Y-91858126D02*
X232672002Y-91865494D01*
X232672002Y-91865494D02*
X232666868Y-91866934D01*
X232666868Y-91866934D02*
X232666525Y-91856847D01*
X232666525Y-91856847D02*
X232666179Y-91826876D01*
X232666179Y-91826876D02*
X232665830Y-91777459D01*
X232665830Y-91777459D02*
X232665481Y-91709030D01*
X232665481Y-91709030D02*
X232665130Y-91622027D01*
X232665130Y-91622027D02*
X232664779Y-91516887D01*
X232664779Y-91516887D02*
X232664428Y-91394046D01*
X232664428Y-91394046D02*
X232664077Y-91253939D01*
X232664077Y-91253939D02*
X232663727Y-91097005D01*
X232663727Y-91097005D02*
X232663378Y-90923678D01*
X232663378Y-90923678D02*
X232663031Y-90734396D01*
X232663031Y-90734396D02*
X232662686Y-90529596D01*
X232662686Y-90529596D02*
X232662344Y-90309712D01*
X232662344Y-90309712D02*
X232662005Y-90075183D01*
X232662005Y-90075183D02*
X232661670Y-89826445D01*
X232661670Y-89826445D02*
X232661338Y-89563933D01*
X232661338Y-89563933D02*
X232661012Y-89288084D01*
X232661012Y-89288084D02*
X232660690Y-88999336D01*
X232660690Y-88999336D02*
X232660374Y-88698124D01*
X232660374Y-88698124D02*
X232660064Y-88384884D01*
X232660064Y-88384884D02*
X232659761Y-88060054D01*
X232659761Y-88060054D02*
X232659464Y-87724070D01*
X232659464Y-87724070D02*
X232659175Y-87377368D01*
X232659175Y-87377368D02*
X232658894Y-87020384D01*
X232658894Y-87020384D02*
X232658621Y-86653555D01*
X232658621Y-86653555D02*
X232658356Y-86277318D01*
X232658356Y-86277318D02*
X232658101Y-85892109D01*
X232658101Y-85892109D02*
X232657856Y-85498365D01*
X232657856Y-85498365D02*
X232657621Y-85096521D01*
X232657621Y-85096521D02*
X232657397Y-84687015D01*
X232657397Y-84687015D02*
X232657184Y-84270283D01*
X232657184Y-84270283D02*
X232656982Y-83846761D01*
X232656982Y-83846761D02*
X232656793Y-83416886D01*
X232656793Y-83416886D02*
X232656616Y-82981094D01*
X232656616Y-82981094D02*
X232656452Y-82539822D01*
X232656452Y-82539822D02*
X232656301Y-82093506D01*
X232656301Y-82093506D02*
X232656271Y-81999034D01*
X232656271Y-81999034D02*
X232653186Y-72131134D01*
X232653186Y-72131134D02*
X232631460Y-72002639D01*
X232631460Y-72002639D02*
X232589260Y-71794699D01*
X232589260Y-71794699D02*
X232534967Y-71601431D01*
X232534967Y-71601431D02*
X232467432Y-71420382D01*
X232467432Y-71420382D02*
X232385503Y-71249102D01*
X232385503Y-71249102D02*
X232288032Y-71085138D01*
X232288032Y-71085138D02*
X232173868Y-70926041D01*
X232173868Y-70926041D02*
X232064928Y-70795157D01*
X232064928Y-70795157D02*
X231915510Y-70640915D01*
X231915510Y-70640915D02*
X231752026Y-70499600D01*
X231752026Y-70499600D02*
X231576494Y-70372431D01*
X231576494Y-70372431D02*
X231390935Y-70260623D01*
X231390935Y-70260623D02*
X231197366Y-70165394D01*
X231197366Y-70165394D02*
X230997806Y-70087960D01*
X230997806Y-70087960D02*
X230794872Y-70029681D01*
X230794872Y-70029681D02*
X230585609Y-69989934D01*
X230585609Y-69989934D02*
X230368629Y-69967798D01*
X230368629Y-69967798D02*
X230146696Y-69963474D01*
X230146696Y-69963474D02*
X229989708Y-69971166D01*
X229989708Y-69971166D02*
X229782443Y-69992973D01*
X229782443Y-69992973D02*
X229590373Y-70025493D01*
X229590373Y-70025493D02*
X229411069Y-70069323D01*
X229411069Y-70069323D02*
X229242100Y-70125062D01*
X229242100Y-70125062D02*
X229081039Y-70193309D01*
X229081039Y-70193309D02*
X229073805Y-70196747D01*
X229073805Y-70196747D02*
X228948577Y-70260112D01*
X228948577Y-70260112D02*
X228838373Y-70324123D01*
X228838373Y-70324123D02*
X228738099Y-70392275D01*
X228738099Y-70392275D02*
X228642659Y-70468063D01*
X228642659Y-70468063D02*
X228546960Y-70554982D01*
X228546960Y-70554982D02*
X228535694Y-70565862D01*
X228535694Y-70565862D02*
X228407453Y-70700906D01*
X228407453Y-70700906D02*
X228294547Y-70842853D01*
X228294547Y-70842853D02*
X228193999Y-70995819D01*
X228193999Y-70995819D02*
X228102837Y-71163917D01*
X228102837Y-71163917D02*
X228101841Y-71165934D01*
X228101841Y-71165934D02*
X228042158Y-71294782D01*
X228042158Y-71294782D02*
X227990431Y-71424076D01*
X227990431Y-71424076D02*
X227945423Y-71557826D01*
X227945423Y-71557826D02*
X227905899Y-71700042D01*
X227905899Y-71700042D02*
X227870623Y-71854732D01*
X227870623Y-71854732D02*
X227840372Y-72014294D01*
X227840372Y-72014294D02*
X227818229Y-72141294D01*
X227818229Y-72141294D02*
X227815531Y-83736394D01*
X227815531Y-83736394D02*
X227815425Y-84221487D01*
X227815425Y-84221487D02*
X227815333Y-84701662D01*
X227815333Y-84701662D02*
X227815256Y-85176515D01*
X227815256Y-85176515D02*
X227815192Y-85645645D01*
X227815192Y-85645645D02*
X227815143Y-86108649D01*
X227815143Y-86108649D02*
X227815107Y-86565124D01*
X227815107Y-86565124D02*
X227815084Y-87014668D01*
X227815084Y-87014668D02*
X227815075Y-87456878D01*
X227815075Y-87456878D02*
X227815080Y-87891351D01*
X227815080Y-87891351D02*
X227815097Y-88317685D01*
X227815097Y-88317685D02*
X227815127Y-88735476D01*
X227815127Y-88735476D02*
X227815169Y-89144323D01*
X227815169Y-89144323D02*
X227815225Y-89543823D01*
X227815225Y-89543823D02*
X227815292Y-89933573D01*
X227815292Y-89933573D02*
X227815372Y-90313170D01*
X227815372Y-90313170D02*
X227815463Y-90682212D01*
X227815463Y-90682212D02*
X227815567Y-91040296D01*
X227815567Y-91040296D02*
X227815681Y-91387020D01*
X227815681Y-91387020D02*
X227815808Y-91721980D01*
X227815808Y-91721980D02*
X227815946Y-92044775D01*
X227815946Y-92044775D02*
X227816094Y-92355001D01*
X227816094Y-92355001D02*
X227816254Y-92652256D01*
X227816254Y-92652256D02*
X227816424Y-92936137D01*
X227816424Y-92936137D02*
X227816605Y-93206242D01*
X227816605Y-93206242D02*
X227816797Y-93462168D01*
X227816797Y-93462168D02*
X227816998Y-93703512D01*
X227816998Y-93703512D02*
X227817210Y-93929872D01*
X227817210Y-93929872D02*
X227817431Y-94140845D01*
X227817431Y-94140845D02*
X227817663Y-94336029D01*
X227817663Y-94336029D02*
X227817903Y-94515020D01*
X227817903Y-94515020D02*
X227818153Y-94677416D01*
X227818153Y-94677416D02*
X227818413Y-94822815D01*
X227818413Y-94822815D02*
X227818681Y-94950813D01*
X227818681Y-94950813D02*
X227818958Y-95061009D01*
X227818958Y-95061009D02*
X227819244Y-95152999D01*
X227819244Y-95152999D02*
X227819538Y-95226381D01*
X227819538Y-95226381D02*
X227819840Y-95280753D01*
X227819840Y-95280753D02*
X227820151Y-95315711D01*
X227820151Y-95315711D02*
X227820469Y-95330852D01*
X227820469Y-95330852D02*
X227820551Y-95331494D01*
X227820551Y-95331494D02*
X227831083Y-95328189D01*
X227831083Y-95328189D02*
X227859366Y-95318599D01*
X227859366Y-95318599D02*
X227903996Y-95303216D01*
X227903996Y-95303216D02*
X227963567Y-95282533D01*
X227963567Y-95282533D02*
X228036674Y-95257039D01*
X228036674Y-95257039D02*
X228121911Y-95227227D01*
X228121911Y-95227227D02*
X228217873Y-95193587D01*
X228217873Y-95193587D02*
X228323155Y-95156612D01*
X228323155Y-95156612D02*
X228436351Y-95116792D01*
X228436351Y-95116792D02*
X228556056Y-95074619D01*
X228556056Y-95074619D02*
X228646091Y-95042860D01*
X228646091Y-95042860D02*
X229463912Y-94754225D01*
X229463912Y-94754225D02*
X229468992Y-83493480D01*
X229468992Y-83493480D02*
X229474072Y-72232734D01*
X229474072Y-72232734D02*
X229495900Y-72156534D01*
X229495900Y-72156534D02*
X229535386Y-72044809D01*
X229535386Y-72044809D02*
X229585685Y-71948845D01*
X229585685Y-71948845D02*
X229647461Y-71868230D01*
X229647461Y-71868230D02*
X229721376Y-71802555D01*
X229721376Y-71802555D02*
X229808096Y-71751407D01*
X229808096Y-71751407D02*
X229908282Y-71714376D01*
X229908282Y-71714376D02*
X230022599Y-71691050D01*
X230022599Y-71691050D02*
X230151711Y-71681017D01*
X230151711Y-71681017D02*
X230261472Y-71682086D01*
X230261472Y-71682086D02*
X230400807Y-71695461D01*
X230400807Y-71695461D02*
X230525835Y-71723263D01*
X230525835Y-71723263D02*
X230636569Y-71765501D01*
X230636569Y-71765501D02*
X230733020Y-71822182D01*
X230733020Y-71822182D02*
X230815200Y-71893316D01*
X230815200Y-71893316D02*
X230883121Y-71978909D01*
X230883121Y-71978909D02*
X230936794Y-72078971D01*
X230936794Y-72078971D02*
X230974535Y-72187212D01*
X230974535Y-72187212D02*
X230998072Y-72273374D01*
X230998072Y-72273374D02*
X230998072Y-92459211D01*
X230998072Y-92459211D02*
X230032872Y-92799723D01*
X230032872Y-92799723D02*
X230030276Y-93674449D01*
X230030276Y-93674449D02*
X230029914Y-93833452D01*
X230029914Y-93833452D02*
X230029810Y-93978457D01*
X230029810Y-93978457D02*
X230029957Y-94108750D01*
X230029957Y-94108750D02*
X230030349Y-94223618D01*
X230030349Y-94223618D02*
X230030981Y-94322349D01*
X230030981Y-94322349D02*
X230031848Y-94404230D01*
X230031848Y-94404230D02*
X230032943Y-94468547D01*
X230032943Y-94468547D02*
X230034260Y-94514588D01*
X230034260Y-94514588D02*
X230035795Y-94541640D01*
X230035795Y-94541640D02*
X230037294Y-94549174D01*
X230037294Y-94549174D02*
X230047736Y-94545843D01*
X230047736Y-94545843D02*
X230076365Y-94536074D01*
X230076365Y-94536074D02*
X230122211Y-94520210D01*
X230122211Y-94520210D02*
X230184303Y-94498591D01*
X230184303Y-94498591D02*
X230261672Y-94471558D01*
X230261672Y-94471558D02*
X230353349Y-94439451D01*
X230353349Y-94439451D02*
X230458363Y-94402611D01*
X230458363Y-94402611D02*
X230575745Y-94361380D01*
X230575745Y-94361380D02*
X230704524Y-94316097D01*
X230704524Y-94316097D02*
X230843730Y-94267104D01*
X230843730Y-94267104D02*
X230992395Y-94214741D01*
X230992395Y-94214741D02*
X231149548Y-94159350D01*
X231149548Y-94159350D02*
X231314218Y-94101270D01*
X231314218Y-94101270D02*
X231485437Y-94040843D01*
X231485437Y-94040843D02*
X231662235Y-93978410D01*
X231662235Y-93978410D02*
X231746771Y-93948544D01*
X231746771Y-93948544D02*
X231926437Y-93885062D01*
X231926437Y-93885062D02*
X232101316Y-93823274D01*
X232101316Y-93823274D02*
X232270412Y-93763532D01*
X232270412Y-93763532D02*
X232432728Y-93706188D01*
X232432728Y-93706188D02*
X232587269Y-93651594D01*
X232587269Y-93651594D02*
X232733040Y-93600101D01*
X232733040Y-93600101D02*
X232869044Y-93552061D01*
X232869044Y-93552061D02*
X232994287Y-93507825D01*
X232994287Y-93507825D02*
X233107772Y-93467745D01*
X233107772Y-93467745D02*
X233208505Y-93432173D01*
X233208505Y-93432173D02*
X233295488Y-93401460D01*
X233295488Y-93401460D02*
X233367727Y-93375959D01*
X233367727Y-93375959D02*
X233424226Y-93356020D01*
X233424226Y-93356020D02*
X233463989Y-93341995D01*
X233463989Y-93341995D02*
X233486021Y-93334237D01*
X233486021Y-93334237D02*
X233489812Y-93332909D01*
X233489812Y-93332909D02*
X233532992Y-93317904D01*
X233532992Y-93317904D02*
X233532992Y-92445099D01*
X233532992Y-92445099D02*
X233532915Y-92280106D01*
X233532915Y-92280106D02*
X233532915Y-92280106D01*
G36*
X230368629Y-69967798D02*
G01*
X230585609Y-69989934D01*
X230794872Y-70029681D01*
X230997806Y-70087960D01*
X231197366Y-70165394D01*
X231390935Y-70260623D01*
X231576494Y-70372431D01*
X231752026Y-70499600D01*
X231915510Y-70640915D01*
X232064928Y-70795157D01*
X232173868Y-70926041D01*
X232288032Y-71085138D01*
X232385503Y-71249102D01*
X232467432Y-71420382D01*
X232534967Y-71601431D01*
X232589260Y-71794699D01*
X232631460Y-72002639D01*
X232653186Y-72131134D01*
X232656271Y-81999034D01*
X232656301Y-82093506D01*
X232656452Y-82539822D01*
X232656616Y-82981094D01*
X232656793Y-83416886D01*
X232656982Y-83846761D01*
X232657184Y-84270283D01*
X232657397Y-84687015D01*
X232657621Y-85096521D01*
X232657856Y-85498365D01*
X232658101Y-85892109D01*
X232658356Y-86277318D01*
X232658621Y-86653555D01*
X232658894Y-87020384D01*
X232659175Y-87377368D01*
X232659464Y-87724070D01*
X232659761Y-88060054D01*
X232660064Y-88384884D01*
X232660374Y-88698124D01*
X232660690Y-88999336D01*
X232661012Y-89288084D01*
X232661338Y-89563933D01*
X232661670Y-89826445D01*
X232662005Y-90075183D01*
X232662344Y-90309712D01*
X232662686Y-90529596D01*
X232663031Y-90734396D01*
X232663378Y-90923678D01*
X232663727Y-91097005D01*
X232664077Y-91253939D01*
X232664428Y-91394046D01*
X232664779Y-91516887D01*
X232665130Y-91622027D01*
X232665481Y-91709030D01*
X232665830Y-91777459D01*
X232666179Y-91826876D01*
X232666525Y-91856847D01*
X232666868Y-91866934D01*
X232672002Y-91865494D01*
X232694406Y-91858126D01*
X232732667Y-91845119D01*
X232784797Y-91827163D01*
X232848807Y-91804946D01*
X232922710Y-91779156D01*
X233004517Y-91750483D01*
X233092240Y-91719614D01*
X233150099Y-91699254D01*
X233234458Y-91669714D01*
X233311738Y-91642824D01*
X233379929Y-91619275D01*
X233437017Y-91599757D01*
X233480991Y-91584960D01*
X233509838Y-91575576D01*
X233521546Y-91572294D01*
X233523666Y-91577958D01*
X233525580Y-91595963D01*
X233527247Y-91627110D01*
X233528679Y-91672197D01*
X233529886Y-91732021D01*
X233530879Y-91807379D01*
X233531668Y-91899069D01*
X233532263Y-92007889D01*
X233532675Y-92134635D01*
X233532915Y-92280106D01*
X233532992Y-92445099D01*
X233532992Y-93317904D01*
X233489812Y-93332909D01*
X233486021Y-93334237D01*
X233463989Y-93341995D01*
X233424226Y-93356020D01*
X233367727Y-93375959D01*
X233295488Y-93401460D01*
X233208505Y-93432173D01*
X233107772Y-93467745D01*
X232994287Y-93507825D01*
X232869044Y-93552061D01*
X232733040Y-93600101D01*
X232587269Y-93651594D01*
X232432728Y-93706188D01*
X232270412Y-93763532D01*
X232101316Y-93823274D01*
X231926437Y-93885062D01*
X231746771Y-93948544D01*
X231662235Y-93978410D01*
X231485437Y-94040843D01*
X231314218Y-94101270D01*
X231149548Y-94159350D01*
X230992395Y-94214741D01*
X230843730Y-94267104D01*
X230704524Y-94316097D01*
X230575745Y-94361380D01*
X230458363Y-94402611D01*
X230353349Y-94439451D01*
X230261672Y-94471558D01*
X230184303Y-94498591D01*
X230122211Y-94520210D01*
X230076365Y-94536074D01*
X230047736Y-94545843D01*
X230037294Y-94549174D01*
X230035795Y-94541640D01*
X230034260Y-94514588D01*
X230032943Y-94468547D01*
X230031848Y-94404230D01*
X230030981Y-94322349D01*
X230030349Y-94223618D01*
X230029957Y-94108750D01*
X230029810Y-93978457D01*
X230029914Y-93833452D01*
X230030276Y-93674449D01*
X230032872Y-92799723D01*
X230998072Y-92459211D01*
X230998072Y-72273374D01*
X230974535Y-72187212D01*
X230936794Y-72078971D01*
X230883121Y-71978909D01*
X230815200Y-71893316D01*
X230733020Y-71822182D01*
X230636569Y-71765501D01*
X230525835Y-71723263D01*
X230400807Y-71695461D01*
X230261472Y-71682086D01*
X230151711Y-71681017D01*
X230022599Y-71691050D01*
X229908282Y-71714376D01*
X229808096Y-71751407D01*
X229721376Y-71802555D01*
X229647461Y-71868230D01*
X229585685Y-71948845D01*
X229535386Y-72044809D01*
X229495900Y-72156534D01*
X229474072Y-72232734D01*
X229468992Y-83493480D01*
X229463912Y-94754225D01*
X228646091Y-95042860D01*
X228556056Y-95074619D01*
X228436351Y-95116792D01*
X228323155Y-95156612D01*
X228217873Y-95193587D01*
X228121911Y-95227227D01*
X228036674Y-95257039D01*
X227963567Y-95282533D01*
X227903996Y-95303216D01*
X227859366Y-95318599D01*
X227831083Y-95328189D01*
X227820551Y-95331494D01*
X227820469Y-95330852D01*
X227820151Y-95315711D01*
X227819840Y-95280753D01*
X227819538Y-95226381D01*
X227819244Y-95152999D01*
X227818958Y-95061009D01*
X227818681Y-94950813D01*
X227818413Y-94822815D01*
X227818153Y-94677416D01*
X227817903Y-94515020D01*
X227817663Y-94336029D01*
X227817431Y-94140845D01*
X227817210Y-93929872D01*
X227816998Y-93703512D01*
X227816797Y-93462168D01*
X227816605Y-93206242D01*
X227816424Y-92936137D01*
X227816254Y-92652256D01*
X227816094Y-92355001D01*
X227815946Y-92044775D01*
X227815808Y-91721980D01*
X227815681Y-91387020D01*
X227815567Y-91040296D01*
X227815463Y-90682212D01*
X227815372Y-90313170D01*
X227815292Y-89933573D01*
X227815225Y-89543823D01*
X227815169Y-89144323D01*
X227815127Y-88735476D01*
X227815097Y-88317685D01*
X227815080Y-87891351D01*
X227815075Y-87456878D01*
X227815084Y-87014668D01*
X227815107Y-86565124D01*
X227815143Y-86108649D01*
X227815192Y-85645645D01*
X227815256Y-85176515D01*
X227815333Y-84701662D01*
X227815425Y-84221487D01*
X227815531Y-83736394D01*
X227818229Y-72141294D01*
X227840372Y-72014294D01*
X227870623Y-71854732D01*
X227905899Y-71700042D01*
X227945423Y-71557826D01*
X227990431Y-71424076D01*
X228042158Y-71294782D01*
X228101841Y-71165934D01*
X228102837Y-71163917D01*
X228193999Y-70995819D01*
X228294547Y-70842853D01*
X228407453Y-70700906D01*
X228535694Y-70565862D01*
X228546960Y-70554982D01*
X228642659Y-70468063D01*
X228738099Y-70392275D01*
X228838373Y-70324123D01*
X228948577Y-70260112D01*
X229073805Y-70196747D01*
X229081039Y-70193309D01*
X229242100Y-70125062D01*
X229411069Y-70069323D01*
X229590373Y-70025493D01*
X229782443Y-69992973D01*
X229989708Y-69971166D01*
X230146696Y-69963474D01*
X230368629Y-69967798D01*
G37*
X230368629Y-69967798D02*
X230585609Y-69989934D01*
X230794872Y-70029681D01*
X230997806Y-70087960D01*
X231197366Y-70165394D01*
X231390935Y-70260623D01*
X231576494Y-70372431D01*
X231752026Y-70499600D01*
X231915510Y-70640915D01*
X232064928Y-70795157D01*
X232173868Y-70926041D01*
X232288032Y-71085138D01*
X232385503Y-71249102D01*
X232467432Y-71420382D01*
X232534967Y-71601431D01*
X232589260Y-71794699D01*
X232631460Y-72002639D01*
X232653186Y-72131134D01*
X232656271Y-81999034D01*
X232656301Y-82093506D01*
X232656452Y-82539822D01*
X232656616Y-82981094D01*
X232656793Y-83416886D01*
X232656982Y-83846761D01*
X232657184Y-84270283D01*
X232657397Y-84687015D01*
X232657621Y-85096521D01*
X232657856Y-85498365D01*
X232658101Y-85892109D01*
X232658356Y-86277318D01*
X232658621Y-86653555D01*
X232658894Y-87020384D01*
X232659175Y-87377368D01*
X232659464Y-87724070D01*
X232659761Y-88060054D01*
X232660064Y-88384884D01*
X232660374Y-88698124D01*
X232660690Y-88999336D01*
X232661012Y-89288084D01*
X232661338Y-89563933D01*
X232661670Y-89826445D01*
X232662005Y-90075183D01*
X232662344Y-90309712D01*
X232662686Y-90529596D01*
X232663031Y-90734396D01*
X232663378Y-90923678D01*
X232663727Y-91097005D01*
X232664077Y-91253939D01*
X232664428Y-91394046D01*
X232664779Y-91516887D01*
X232665130Y-91622027D01*
X232665481Y-91709030D01*
X232665830Y-91777459D01*
X232666179Y-91826876D01*
X232666525Y-91856847D01*
X232666868Y-91866934D01*
X232672002Y-91865494D01*
X232694406Y-91858126D01*
X232732667Y-91845119D01*
X232784797Y-91827163D01*
X232848807Y-91804946D01*
X232922710Y-91779156D01*
X233004517Y-91750483D01*
X233092240Y-91719614D01*
X233150099Y-91699254D01*
X233234458Y-91669714D01*
X233311738Y-91642824D01*
X233379929Y-91619275D01*
X233437017Y-91599757D01*
X233480991Y-91584960D01*
X233509838Y-91575576D01*
X233521546Y-91572294D01*
X233523666Y-91577958D01*
X233525580Y-91595963D01*
X233527247Y-91627110D01*
X233528679Y-91672197D01*
X233529886Y-91732021D01*
X233530879Y-91807379D01*
X233531668Y-91899069D01*
X233532263Y-92007889D01*
X233532675Y-92134635D01*
X233532915Y-92280106D01*
X233532992Y-92445099D01*
X233532992Y-93317904D01*
X233489812Y-93332909D01*
X233486021Y-93334237D01*
X233463989Y-93341995D01*
X233424226Y-93356020D01*
X233367727Y-93375959D01*
X233295488Y-93401460D01*
X233208505Y-93432173D01*
X233107772Y-93467745D01*
X232994287Y-93507825D01*
X232869044Y-93552061D01*
X232733040Y-93600101D01*
X232587269Y-93651594D01*
X232432728Y-93706188D01*
X232270412Y-93763532D01*
X232101316Y-93823274D01*
X231926437Y-93885062D01*
X231746771Y-93948544D01*
X231662235Y-93978410D01*
X231485437Y-94040843D01*
X231314218Y-94101270D01*
X231149548Y-94159350D01*
X230992395Y-94214741D01*
X230843730Y-94267104D01*
X230704524Y-94316097D01*
X230575745Y-94361380D01*
X230458363Y-94402611D01*
X230353349Y-94439451D01*
X230261672Y-94471558D01*
X230184303Y-94498591D01*
X230122211Y-94520210D01*
X230076365Y-94536074D01*
X230047736Y-94545843D01*
X230037294Y-94549174D01*
X230035795Y-94541640D01*
X230034260Y-94514588D01*
X230032943Y-94468547D01*
X230031848Y-94404230D01*
X230030981Y-94322349D01*
X230030349Y-94223618D01*
X230029957Y-94108750D01*
X230029810Y-93978457D01*
X230029914Y-93833452D01*
X230030276Y-93674449D01*
X230032872Y-92799723D01*
X230998072Y-92459211D01*
X230998072Y-72273374D01*
X230974535Y-72187212D01*
X230936794Y-72078971D01*
X230883121Y-71978909D01*
X230815200Y-71893316D01*
X230733020Y-71822182D01*
X230636569Y-71765501D01*
X230525835Y-71723263D01*
X230400807Y-71695461D01*
X230261472Y-71682086D01*
X230151711Y-71681017D01*
X230022599Y-71691050D01*
X229908282Y-71714376D01*
X229808096Y-71751407D01*
X229721376Y-71802555D01*
X229647461Y-71868230D01*
X229585685Y-71948845D01*
X229535386Y-72044809D01*
X229495900Y-72156534D01*
X229474072Y-72232734D01*
X229468992Y-83493480D01*
X229463912Y-94754225D01*
X228646091Y-95042860D01*
X228556056Y-95074619D01*
X228436351Y-95116792D01*
X228323155Y-95156612D01*
X228217873Y-95193587D01*
X228121911Y-95227227D01*
X228036674Y-95257039D01*
X227963567Y-95282533D01*
X227903996Y-95303216D01*
X227859366Y-95318599D01*
X227831083Y-95328189D01*
X227820551Y-95331494D01*
X227820469Y-95330852D01*
X227820151Y-95315711D01*
X227819840Y-95280753D01*
X227819538Y-95226381D01*
X227819244Y-95152999D01*
X227818958Y-95061009D01*
X227818681Y-94950813D01*
X227818413Y-94822815D01*
X227818153Y-94677416D01*
X227817903Y-94515020D01*
X227817663Y-94336029D01*
X227817431Y-94140845D01*
X227817210Y-93929872D01*
X227816998Y-93703512D01*
X227816797Y-93462168D01*
X227816605Y-93206242D01*
X227816424Y-92936137D01*
X227816254Y-92652256D01*
X227816094Y-92355001D01*
X227815946Y-92044775D01*
X227815808Y-91721980D01*
X227815681Y-91387020D01*
X227815567Y-91040296D01*
X227815463Y-90682212D01*
X227815372Y-90313170D01*
X227815292Y-89933573D01*
X227815225Y-89543823D01*
X227815169Y-89144323D01*
X227815127Y-88735476D01*
X227815097Y-88317685D01*
X227815080Y-87891351D01*
X227815075Y-87456878D01*
X227815084Y-87014668D01*
X227815107Y-86565124D01*
X227815143Y-86108649D01*
X227815192Y-85645645D01*
X227815256Y-85176515D01*
X227815333Y-84701662D01*
X227815425Y-84221487D01*
X227815531Y-83736394D01*
X227818229Y-72141294D01*
X227840372Y-72014294D01*
X227870623Y-71854732D01*
X227905899Y-71700042D01*
X227945423Y-71557826D01*
X227990431Y-71424076D01*
X228042158Y-71294782D01*
X228101841Y-71165934D01*
X228102837Y-71163917D01*
X228193999Y-70995819D01*
X228294547Y-70842853D01*
X228407453Y-70700906D01*
X228535694Y-70565862D01*
X228546960Y-70554982D01*
X228642659Y-70468063D01*
X228738099Y-70392275D01*
X228838373Y-70324123D01*
X228948577Y-70260112D01*
X229073805Y-70196747D01*
X229081039Y-70193309D01*
X229242100Y-70125062D01*
X229411069Y-70069323D01*
X229590373Y-70025493D01*
X229782443Y-69992973D01*
X229989708Y-69971166D01*
X230146696Y-69963474D01*
X230368629Y-69967798D01*
X235746639Y-77686257D02*
X235746615Y-77258827D01*
X235746615Y-77258827D02*
X235746567Y-76849738D01*
X235746567Y-76849738D02*
X235746496Y-76458791D01*
X235746496Y-76458791D02*
X235746402Y-76085789D01*
X235746402Y-76085789D02*
X235746285Y-75730534D01*
X235746285Y-75730534D02*
X235746145Y-75392829D01*
X235746145Y-75392829D02*
X235745980Y-75072474D01*
X235745980Y-75072474D02*
X235745792Y-74769272D01*
X235745792Y-74769272D02*
X235745580Y-74483026D01*
X235745580Y-74483026D02*
X235745344Y-74213537D01*
X235745344Y-74213537D02*
X235745084Y-73960608D01*
X235745084Y-73960608D02*
X235744799Y-73724040D01*
X235744799Y-73724040D02*
X235744490Y-73503635D01*
X235744490Y-73503635D02*
X235744156Y-73299196D01*
X235744156Y-73299196D02*
X235743797Y-73110525D01*
X235743797Y-73110525D02*
X235743413Y-72937424D01*
X235743413Y-72937424D02*
X235743004Y-72779694D01*
X235743004Y-72779694D02*
X235742570Y-72637139D01*
X235742570Y-72637139D02*
X235742110Y-72509559D01*
X235742110Y-72509559D02*
X235741625Y-72396758D01*
X235741625Y-72396758D02*
X235741113Y-72298536D01*
X235741113Y-72298536D02*
X235740576Y-72214697D01*
X235740576Y-72214697D02*
X235740013Y-72145042D01*
X235740013Y-72145042D02*
X235739423Y-72089374D01*
X235739423Y-72089374D02*
X235738808Y-72047494D01*
X235738808Y-72047494D02*
X235738165Y-72019204D01*
X235738165Y-72019204D02*
X235737793Y-72009214D01*
X235737793Y-72009214D02*
X235715336Y-71675007D01*
X235715336Y-71675007D02*
X235680255Y-71355879D01*
X235680255Y-71355879D02*
X235632083Y-71050631D01*
X235632083Y-71050631D02*
X235570358Y-70758063D01*
X235570358Y-70758063D02*
X235494615Y-70476977D01*
X235494615Y-70476977D02*
X235404390Y-70206172D01*
X235404390Y-70206172D02*
X235299219Y-69944449D01*
X235299219Y-69944449D02*
X235178637Y-69690609D01*
X235178637Y-69690609D02*
X235042181Y-69443452D01*
X235042181Y-69443452D02*
X234889386Y-69201778D01*
X234889386Y-69201778D02*
X234719788Y-68964388D01*
X234719788Y-68964388D02*
X234532923Y-68730083D01*
X234532923Y-68730083D02*
X234416737Y-68595454D01*
X234416737Y-68595454D02*
X234355734Y-68528865D01*
X234355734Y-68528865D02*
X234283263Y-68453342D01*
X234283263Y-68453342D02*
X234203135Y-68372596D01*
X234203135Y-68372596D02*
X234119163Y-68290334D01*
X234119163Y-68290334D02*
X234035159Y-68210263D01*
X234035159Y-68210263D02*
X233954935Y-68136092D01*
X233954935Y-68136092D02*
X233882303Y-68071528D01*
X233882303Y-68071528D02*
X233848422Y-68042667D01*
X233848422Y-68042667D02*
X233585978Y-67836423D01*
X233585978Y-67836423D02*
X233313358Y-67647607D01*
X233313358Y-67647607D02*
X233031106Y-67476382D01*
X233031106Y-67476382D02*
X232739766Y-67322915D01*
X232739766Y-67322915D02*
X232439882Y-67187369D01*
X232439882Y-67187369D02*
X232131997Y-67069910D01*
X232131997Y-67069910D02*
X231816656Y-66970703D01*
X231816656Y-66970703D02*
X231494403Y-66889912D01*
X231494403Y-66889912D02*
X231165782Y-66827703D01*
X231165782Y-66827703D02*
X230831336Y-66784240D01*
X230831336Y-66784240D02*
X230491610Y-66759689D01*
X230491610Y-66759689D02*
X230147147Y-66754214D01*
X230147147Y-66754214D02*
X229798491Y-66767979D01*
X229798491Y-66767979D02*
X229674932Y-66777429D01*
X229674932Y-66777429D02*
X229331445Y-66816707D01*
X229331445Y-66816707D02*
X228995706Y-66874749D01*
X228995706Y-66874749D02*
X228667744Y-66951545D01*
X228667744Y-66951545D02*
X228347590Y-67047087D01*
X228347590Y-67047087D02*
X228035271Y-67161368D01*
X228035271Y-67161368D02*
X227730818Y-67294379D01*
X227730818Y-67294379D02*
X227594472Y-67361316D01*
X227594472Y-67361316D02*
X227316581Y-67512671D01*
X227316581Y-67512671D02*
X227052499Y-67677492D01*
X227052499Y-67677492D02*
X226800318Y-67857173D01*
X226800318Y-67857173D02*
X226558128Y-68053108D01*
X226558128Y-68053108D02*
X226324020Y-68266694D01*
X226324020Y-68266694D02*
X226236151Y-68353408D01*
X226236151Y-68353408D02*
X226118332Y-68474820D01*
X226118332Y-68474820D02*
X226013377Y-68589151D01*
X226013377Y-68589151D02*
X225917524Y-68701004D01*
X225917524Y-68701004D02*
X225827014Y-68814980D01*
X225827014Y-68814980D02*
X225738083Y-68935682D01*
X225738083Y-68935682D02*
X225646971Y-69067713D01*
X225646971Y-69067713D02*
X225623130Y-69103454D01*
X225623130Y-69103454D02*
X225476921Y-69336453D01*
X225476921Y-69336453D02*
X225348224Y-69568776D01*
X225348224Y-69568776D02*
X225234882Y-69804852D01*
X225234882Y-69804852D02*
X225134740Y-70049108D01*
X225134740Y-70049108D02*
X225061616Y-70256614D01*
X225061616Y-70256614D02*
X225008286Y-70423446D01*
X225008286Y-70423446D02*
X224961424Y-70580822D01*
X224961424Y-70580822D02*
X224920352Y-70732138D01*
X224920352Y-70732138D02*
X224884393Y-70880792D01*
X224884393Y-70880792D02*
X224852870Y-71030183D01*
X224852870Y-71030183D02*
X224825106Y-71183706D01*
X224825106Y-71183706D02*
X224800423Y-71344760D01*
X224800423Y-71344760D02*
X224778145Y-71516742D01*
X224778145Y-71516742D02*
X224757594Y-71703049D01*
X224757594Y-71703049D02*
X224742668Y-71856814D01*
X224742668Y-71856814D02*
X224742011Y-71868378D01*
X224742011Y-71868378D02*
X224741372Y-71888848D01*
X224741372Y-71888848D02*
X224740750Y-71918501D01*
X224740750Y-71918501D02*
X224740143Y-71957615D01*
X224740143Y-71957615D02*
X224739553Y-72006465D01*
X224739553Y-72006465D02*
X224738978Y-72065330D01*
X224738978Y-72065330D02*
X224738418Y-72134485D01*
X224738418Y-72134485D02*
X224737872Y-72214208D01*
X224737872Y-72214208D02*
X224737341Y-72304775D01*
X224737341Y-72304775D02*
X224736823Y-72406463D01*
X224736823Y-72406463D02*
X224736318Y-72519549D01*
X224736318Y-72519549D02*
X224735827Y-72644310D01*
X224735827Y-72644310D02*
X224735347Y-72781023D01*
X224735347Y-72781023D02*
X224734880Y-72929964D01*
X224734880Y-72929964D02*
X224734424Y-73091410D01*
X224734424Y-73091410D02*
X224733979Y-73265639D01*
X224733979Y-73265639D02*
X224733545Y-73452926D01*
X224733545Y-73452926D02*
X224733122Y-73653549D01*
X224733122Y-73653549D02*
X224732708Y-73867784D01*
X224732708Y-73867784D02*
X224732303Y-74095908D01*
X224732303Y-74095908D02*
X224731907Y-74338199D01*
X224731907Y-74338199D02*
X224731520Y-74594933D01*
X224731520Y-74594933D02*
X224731141Y-74866386D01*
X224731141Y-74866386D02*
X224730770Y-75152836D01*
X224730770Y-75152836D02*
X224730405Y-75454560D01*
X224730405Y-75454560D02*
X224730048Y-75771833D01*
X224730048Y-75771833D02*
X224729697Y-76104934D01*
X224729697Y-76104934D02*
X224729352Y-76454138D01*
X224729352Y-76454138D02*
X224729012Y-76819724D01*
X224729012Y-76819724D02*
X224728678Y-77201966D01*
X224728678Y-77201966D02*
X224728348Y-77601143D01*
X224728348Y-77601143D02*
X224728022Y-78017531D01*
X224728022Y-78017531D02*
X224727700Y-78451407D01*
X224727700Y-78451407D02*
X224727382Y-78903048D01*
X224727382Y-78903048D02*
X224727066Y-79372730D01*
X224727066Y-79372730D02*
X224726753Y-79860730D01*
X224726753Y-79860730D02*
X224726442Y-80367326D01*
X224726442Y-80367326D02*
X224726133Y-80892794D01*
X224726133Y-80892794D02*
X224725824Y-81437410D01*
X224725824Y-81437410D02*
X224725517Y-82001452D01*
X224725517Y-82001452D02*
X224725210Y-82585197D01*
X224725210Y-82585197D02*
X224724903Y-83188921D01*
X224724903Y-83188921D02*
X224724832Y-83331198D01*
X224724832Y-83331198D02*
X224719192Y-94673501D01*
X224719192Y-94673501D02*
X223408552Y-95136047D01*
X223408552Y-95136047D02*
X223403360Y-96895787D01*
X223403360Y-96895787D02*
X223512636Y-96857211D01*
X223512636Y-96857211D02*
X223535069Y-96849292D01*
X223535069Y-96849292D02*
X223575478Y-96835027D01*
X223575478Y-96835027D02*
X223632678Y-96814835D01*
X223632678Y-96814835D02*
X223705484Y-96789133D01*
X223705484Y-96789133D02*
X223792712Y-96758341D01*
X223792712Y-96758341D02*
X223893176Y-96722876D01*
X223893176Y-96722876D02*
X224005692Y-96683157D01*
X224005692Y-96683157D02*
X224129075Y-96639601D01*
X224129075Y-96639601D02*
X224262140Y-96592628D01*
X224262140Y-96592628D02*
X224403701Y-96542655D01*
X224403701Y-96542655D02*
X224552575Y-96490102D01*
X224552575Y-96490102D02*
X224707575Y-96435385D01*
X224707575Y-96435385D02*
X224867518Y-96378924D01*
X224867518Y-96378924D02*
X225001060Y-96331782D01*
X225001060Y-96331782D02*
X226380208Y-95844929D01*
X226380208Y-95844929D02*
X226383090Y-83855952D01*
X226383090Y-83855952D02*
X226383234Y-83260237D01*
X226383234Y-83260237D02*
X226383376Y-82684497D01*
X226383376Y-82684497D02*
X226383516Y-82128389D01*
X226383516Y-82128389D02*
X226383655Y-81591567D01*
X226383655Y-81591567D02*
X226383793Y-81073687D01*
X226383793Y-81073687D02*
X226383931Y-80574405D01*
X226383931Y-80574405D02*
X226384069Y-80093377D01*
X226384069Y-80093377D02*
X226384209Y-79630257D01*
X226384209Y-79630257D02*
X226384350Y-79184701D01*
X226384350Y-79184701D02*
X226384494Y-78756366D01*
X226384494Y-78756366D02*
X226384640Y-78344905D01*
X226384640Y-78344905D02*
X226384790Y-77949976D01*
X226384790Y-77949976D02*
X226384943Y-77571233D01*
X226384943Y-77571233D02*
X226385102Y-77208333D01*
X226385102Y-77208333D02*
X226385265Y-76860929D01*
X226385265Y-76860929D02*
X226385435Y-76528679D01*
X226385435Y-76528679D02*
X226385610Y-76211238D01*
X226385610Y-76211238D02*
X226385793Y-75908261D01*
X226385793Y-75908261D02*
X226385983Y-75619404D01*
X226385983Y-75619404D02*
X226386181Y-75344322D01*
X226386181Y-75344322D02*
X226386388Y-75082671D01*
X226386388Y-75082671D02*
X226386604Y-74834106D01*
X226386604Y-74834106D02*
X226386830Y-74598283D01*
X226386830Y-74598283D02*
X226387066Y-74374858D01*
X226387066Y-74374858D02*
X226387313Y-74163485D01*
X226387313Y-74163485D02*
X226387572Y-73963822D01*
X226387572Y-73963822D02*
X226387843Y-73775522D01*
X226387843Y-73775522D02*
X226388127Y-73598242D01*
X226388127Y-73598242D02*
X226388424Y-73431637D01*
X226388424Y-73431637D02*
X226388736Y-73275363D01*
X226388736Y-73275363D02*
X226389061Y-73129075D01*
X226389061Y-73129075D02*
X226389402Y-72992429D01*
X226389402Y-72992429D02*
X226389758Y-72865081D01*
X226389758Y-72865081D02*
X226390131Y-72746685D01*
X226390131Y-72746685D02*
X226390521Y-72636897D01*
X226390521Y-72636897D02*
X226390928Y-72535374D01*
X226390928Y-72535374D02*
X226391352Y-72441770D01*
X226391352Y-72441770D02*
X226391796Y-72355742D01*
X226391796Y-72355742D02*
X226392259Y-72276944D01*
X226392259Y-72276944D02*
X226392741Y-72205032D01*
X226392741Y-72205032D02*
X226393244Y-72139661D01*
X226393244Y-72139661D02*
X226393768Y-72080488D01*
X226393768Y-72080488D02*
X226394313Y-72027168D01*
X226394313Y-72027168D02*
X226394880Y-71979356D01*
X226394880Y-71979356D02*
X226395471Y-71936708D01*
X226395471Y-71936708D02*
X226396084Y-71898880D01*
X226396084Y-71898880D02*
X226396721Y-71865526D01*
X226396721Y-71865526D02*
X226397383Y-71836303D01*
X226397383Y-71836303D02*
X226398069Y-71810866D01*
X226398069Y-71810866D02*
X226398781Y-71788870D01*
X226398781Y-71788870D02*
X226399520Y-71769972D01*
X226399520Y-71769972D02*
X226400285Y-71753826D01*
X226400285Y-71753826D02*
X226401077Y-71740088D01*
X226401077Y-71740088D02*
X226401898Y-71728415D01*
X226401898Y-71728415D02*
X226402747Y-71718460D01*
X226402747Y-71718460D02*
X226403625Y-71709880D01*
X226403625Y-71709880D02*
X226403668Y-71709494D01*
X226403668Y-71709494D02*
X226423301Y-71551581D01*
X226423301Y-71551581D02*
X226445237Y-71409110D01*
X226445237Y-71409110D02*
X226470412Y-71277250D01*
X226470412Y-71277250D02*
X226499761Y-71151169D01*
X226499761Y-71151169D02*
X226534221Y-71026037D01*
X226534221Y-71026037D02*
X226539465Y-71008454D01*
X226539465Y-71008454D02*
X226624765Y-70754596D01*
X226624765Y-70754596D02*
X226723752Y-70515179D01*
X226723752Y-70515179D02*
X226837119Y-70289021D01*
X226837119Y-70289021D02*
X226965560Y-70074941D01*
X226965560Y-70074941D02*
X227109768Y-69871757D01*
X227109768Y-69871757D02*
X227270436Y-69678287D01*
X227270436Y-69678287D02*
X227401432Y-69539576D01*
X227401432Y-69539576D02*
X227479871Y-69461991D01*
X227479871Y-69461991D02*
X227549521Y-69396201D01*
X227549521Y-69396201D02*
X227614798Y-69338552D01*
X227614798Y-69338552D02*
X227680118Y-69285395D01*
X227680118Y-69285395D02*
X227749898Y-69233077D01*
X227749898Y-69233077D02*
X227828552Y-69177949D01*
X227828552Y-69177949D02*
X227884082Y-69140509D01*
X227884082Y-69140509D02*
X228096969Y-69010612D01*
X228096969Y-69010612D02*
X228323051Y-68895949D01*
X228323051Y-68895949D02*
X228561980Y-68796604D01*
X228561980Y-68796604D02*
X228813410Y-68712660D01*
X228813410Y-68712660D02*
X229076996Y-68644199D01*
X229076996Y-68644199D02*
X229352390Y-68591304D01*
X229352390Y-68591304D02*
X229639248Y-68554058D01*
X229639248Y-68554058D02*
X229937223Y-68532545D01*
X229937223Y-68532545D02*
X230245968Y-68526847D01*
X230245968Y-68526847D02*
X230429112Y-68530795D01*
X230429112Y-68530795D02*
X230727317Y-68549875D01*
X230727317Y-68549875D02*
X231015678Y-68585347D01*
X231015678Y-68585347D02*
X231293768Y-68637049D01*
X231293768Y-68637049D02*
X231561162Y-68704817D01*
X231561162Y-68704817D02*
X231817433Y-68788487D01*
X231817433Y-68788487D02*
X232062156Y-68887896D01*
X232062156Y-68887896D02*
X232294905Y-69002880D01*
X232294905Y-69002880D02*
X232515254Y-69133275D01*
X232515254Y-69133275D02*
X232722777Y-69278917D01*
X232722777Y-69278917D02*
X232917048Y-69439644D01*
X232917048Y-69439644D02*
X233002916Y-69519633D01*
X233002916Y-69519633D02*
X233161859Y-69683310D01*
X233161859Y-69683310D02*
X233305354Y-69852604D01*
X233305354Y-69852604D02*
X233435824Y-70030869D01*
X233435824Y-70030869D02*
X233555690Y-70221458D01*
X233555690Y-70221458D02*
X233667377Y-70427725D01*
X233667377Y-70427725D02*
X233685874Y-70464894D01*
X233685874Y-70464894D02*
X233781637Y-70673970D01*
X233781637Y-70673970D02*
X233863569Y-70884482D01*
X233863569Y-70884482D02*
X233932628Y-71099760D01*
X233932628Y-71099760D02*
X233989766Y-71323138D01*
X233989766Y-71323138D02*
X234035940Y-71557947D01*
X234035940Y-71557947D02*
X234072104Y-71807519D01*
X234072104Y-71807519D02*
X234073153Y-71816174D01*
X234073153Y-71816174D02*
X234073831Y-71826092D01*
X234073831Y-71826092D02*
X234074489Y-71844614D01*
X234074489Y-71844614D02*
X234075126Y-71872031D01*
X234075126Y-71872031D02*
X234075744Y-71908636D01*
X234075744Y-71908636D02*
X234076343Y-71954718D01*
X234076343Y-71954718D02*
X234076922Y-72010570D01*
X234076922Y-72010570D02*
X234077484Y-72076483D01*
X234077484Y-72076483D02*
X234078027Y-72152748D01*
X234078027Y-72152748D02*
X234078553Y-72239656D01*
X234078553Y-72239656D02*
X234079061Y-72337498D01*
X234079061Y-72337498D02*
X234079553Y-72446566D01*
X234079553Y-72446566D02*
X234080029Y-72567151D01*
X234080029Y-72567151D02*
X234080489Y-72699544D01*
X234080489Y-72699544D02*
X234080933Y-72844036D01*
X234080933Y-72844036D02*
X234081362Y-73000919D01*
X234081362Y-73000919D02*
X234081777Y-73170484D01*
X234081777Y-73170484D02*
X234082178Y-73353022D01*
X234082178Y-73353022D02*
X234082565Y-73548824D01*
X234082565Y-73548824D02*
X234082938Y-73758182D01*
X234082938Y-73758182D02*
X234083299Y-73981386D01*
X234083299Y-73981386D02*
X234083647Y-74218729D01*
X234083647Y-74218729D02*
X234083983Y-74470501D01*
X234083983Y-74470501D02*
X234084307Y-74736994D01*
X234084307Y-74736994D02*
X234084621Y-75018499D01*
X234084621Y-75018499D02*
X234084923Y-75315306D01*
X234084923Y-75315306D02*
X234085215Y-75627708D01*
X234085215Y-75627708D02*
X234085497Y-75955996D01*
X234085497Y-75955996D02*
X234085770Y-76300460D01*
X234085770Y-76300460D02*
X234086033Y-76661392D01*
X234086033Y-76661392D02*
X234086288Y-77039084D01*
X234086288Y-77039084D02*
X234086535Y-77433826D01*
X234086535Y-77433826D02*
X234086774Y-77845910D01*
X234086774Y-77845910D02*
X234087005Y-78275627D01*
X234087005Y-78275627D02*
X234087229Y-78723268D01*
X234087229Y-78723268D02*
X234087447Y-79189125D01*
X234087447Y-79189125D02*
X234087659Y-79673488D01*
X234087659Y-79673488D02*
X234087865Y-80176650D01*
X234087865Y-80176650D02*
X234088065Y-80698900D01*
X234088065Y-80698900D02*
X234088261Y-81240531D01*
X234088261Y-81240531D02*
X234088452Y-81801834D01*
X234088452Y-81801834D02*
X234088640Y-82383100D01*
X234088640Y-82383100D02*
X234088681Y-82517194D01*
X234088681Y-82517194D02*
X234088832Y-82980887D01*
X234088832Y-82980887D02*
X234088996Y-83439643D01*
X234088996Y-83439643D02*
X234089172Y-83893041D01*
X234089172Y-83893041D02*
X234089360Y-84340660D01*
X234089360Y-84340660D02*
X234089559Y-84782079D01*
X234089559Y-84782079D02*
X234089769Y-85216876D01*
X234089769Y-85216876D02*
X234089990Y-85644632D01*
X234089990Y-85644632D02*
X234090220Y-86064924D01*
X234090220Y-86064924D02*
X234090461Y-86477331D01*
X234090461Y-86477331D02*
X234090711Y-86881432D01*
X234090711Y-86881432D02*
X234090969Y-87276807D01*
X234090969Y-87276807D02*
X234091237Y-87663034D01*
X234091237Y-87663034D02*
X234091512Y-88039691D01*
X234091512Y-88039691D02*
X234091794Y-88406359D01*
X234091794Y-88406359D02*
X234092084Y-88762614D01*
X234092084Y-88762614D02*
X234092380Y-89108038D01*
X234092380Y-89108038D02*
X234092683Y-89442207D01*
X234092683Y-89442207D02*
X234092991Y-89764702D01*
X234092991Y-89764702D02*
X234093305Y-90075101D01*
X234093305Y-90075101D02*
X234093624Y-90372983D01*
X234093624Y-90372983D02*
X234093947Y-90657927D01*
X234093947Y-90657927D02*
X234094274Y-90929511D01*
X234094274Y-90929511D02*
X234094605Y-91187315D01*
X234094605Y-91187315D02*
X234094939Y-91430917D01*
X234094939Y-91430917D02*
X234095276Y-91659897D01*
X234095276Y-91659897D02*
X234095616Y-91873832D01*
X234095616Y-91873832D02*
X234095957Y-92072303D01*
X234095957Y-92072303D02*
X234096300Y-92254888D01*
X234096300Y-92254888D02*
X234096643Y-92421165D01*
X234096643Y-92421165D02*
X234096988Y-92570714D01*
X234096988Y-92570714D02*
X234097332Y-92703114D01*
X234097332Y-92703114D02*
X234097677Y-92817942D01*
X234097677Y-92817942D02*
X234098021Y-92914779D01*
X234098021Y-92914779D02*
X234098363Y-92993204D01*
X234098363Y-92993204D02*
X234098704Y-93052794D01*
X234098704Y-93052794D02*
X234099043Y-93093129D01*
X234099043Y-93093129D02*
X234099380Y-93113787D01*
X234099380Y-93113787D02*
X234099557Y-93116614D01*
X234099557Y-93116614D02*
X234110069Y-93113309D01*
X234110069Y-93113309D02*
X234138334Y-93103719D01*
X234138334Y-93103719D02*
X234182945Y-93088337D01*
X234182945Y-93088337D02*
X234242499Y-93067654D01*
X234242499Y-93067654D02*
X234315589Y-93042161D01*
X234315589Y-93042161D02*
X234400812Y-93012350D01*
X234400812Y-93012350D02*
X234496761Y-92978711D01*
X234496761Y-92978711D02*
X234602032Y-92941737D01*
X234602032Y-92941737D02*
X234715219Y-92901918D01*
X234715219Y-92901918D02*
X234834918Y-92859746D01*
X234834918Y-92859746D02*
X234924971Y-92827980D01*
X234924971Y-92827980D02*
X235742792Y-92539345D01*
X235742792Y-92539345D02*
X235745859Y-82391120D01*
X235745859Y-82391120D02*
X235746033Y-81789716D01*
X235746033Y-81789716D02*
X235746185Y-81208435D01*
X235746185Y-81208435D02*
X235746316Y-80647078D01*
X235746316Y-80647078D02*
X235746426Y-80105447D01*
X235746426Y-80105447D02*
X235746513Y-79583344D01*
X235746513Y-79583344D02*
X235746578Y-79080572D01*
X235746578Y-79080572D02*
X235746621Y-78596932D01*
X235746621Y-78596932D02*
X235746641Y-78132226D01*
X235746641Y-78132226D02*
X235746639Y-77686257D01*
X235746639Y-77686257D02*
X235746639Y-77686257D01*
G36*
X230491610Y-66759689D02*
G01*
X230831336Y-66784240D01*
X231165782Y-66827703D01*
X231494403Y-66889912D01*
X231816656Y-66970703D01*
X232131997Y-67069910D01*
X232439882Y-67187369D01*
X232739766Y-67322915D01*
X233031106Y-67476382D01*
X233313358Y-67647607D01*
X233585978Y-67836423D01*
X233848422Y-68042667D01*
X233882303Y-68071528D01*
X233954935Y-68136092D01*
X234035159Y-68210263D01*
X234119163Y-68290334D01*
X234203135Y-68372596D01*
X234283263Y-68453342D01*
X234355734Y-68528865D01*
X234416737Y-68595454D01*
X234532923Y-68730083D01*
X234719788Y-68964388D01*
X234889386Y-69201778D01*
X235042181Y-69443452D01*
X235178637Y-69690609D01*
X235299219Y-69944449D01*
X235404390Y-70206172D01*
X235494615Y-70476977D01*
X235570358Y-70758063D01*
X235632083Y-71050631D01*
X235680255Y-71355879D01*
X235715336Y-71675007D01*
X235737793Y-72009214D01*
X235738165Y-72019204D01*
X235738808Y-72047494D01*
X235739423Y-72089374D01*
X235740013Y-72145042D01*
X235740576Y-72214697D01*
X235741113Y-72298536D01*
X235741625Y-72396758D01*
X235742110Y-72509559D01*
X235742570Y-72637139D01*
X235743004Y-72779694D01*
X235743413Y-72937424D01*
X235743797Y-73110525D01*
X235744156Y-73299196D01*
X235744490Y-73503635D01*
X235744799Y-73724040D01*
X235745084Y-73960608D01*
X235745344Y-74213537D01*
X235745580Y-74483026D01*
X235745792Y-74769272D01*
X235745980Y-75072474D01*
X235746145Y-75392829D01*
X235746285Y-75730534D01*
X235746402Y-76085789D01*
X235746496Y-76458791D01*
X235746567Y-76849738D01*
X235746615Y-77258827D01*
X235746639Y-77686257D01*
X235746641Y-78132226D01*
X235746621Y-78596932D01*
X235746578Y-79080572D01*
X235746513Y-79583344D01*
X235746426Y-80105447D01*
X235746316Y-80647078D01*
X235746185Y-81208435D01*
X235746033Y-81789716D01*
X235745859Y-82391120D01*
X235742792Y-92539345D01*
X234924971Y-92827980D01*
X234834918Y-92859746D01*
X234715219Y-92901918D01*
X234602032Y-92941737D01*
X234496761Y-92978711D01*
X234400812Y-93012350D01*
X234315589Y-93042161D01*
X234242499Y-93067654D01*
X234182945Y-93088337D01*
X234138334Y-93103719D01*
X234110069Y-93113309D01*
X234099557Y-93116614D01*
X234099380Y-93113787D01*
X234099043Y-93093129D01*
X234098704Y-93052794D01*
X234098363Y-92993204D01*
X234098021Y-92914779D01*
X234097677Y-92817942D01*
X234097332Y-92703114D01*
X234096988Y-92570714D01*
X234096643Y-92421165D01*
X234096300Y-92254888D01*
X234095957Y-92072303D01*
X234095616Y-91873832D01*
X234095276Y-91659897D01*
X234094939Y-91430917D01*
X234094605Y-91187315D01*
X234094274Y-90929511D01*
X234093947Y-90657927D01*
X234093624Y-90372983D01*
X234093305Y-90075101D01*
X234092991Y-89764702D01*
X234092683Y-89442207D01*
X234092380Y-89108038D01*
X234092084Y-88762614D01*
X234091794Y-88406359D01*
X234091512Y-88039691D01*
X234091237Y-87663034D01*
X234090969Y-87276807D01*
X234090711Y-86881432D01*
X234090461Y-86477331D01*
X234090220Y-86064924D01*
X234089990Y-85644632D01*
X234089769Y-85216876D01*
X234089559Y-84782079D01*
X234089360Y-84340660D01*
X234089172Y-83893041D01*
X234088996Y-83439643D01*
X234088832Y-82980887D01*
X234088681Y-82517194D01*
X234088640Y-82383100D01*
X234088452Y-81801834D01*
X234088261Y-81240531D01*
X234088065Y-80698900D01*
X234087865Y-80176650D01*
X234087659Y-79673488D01*
X234087447Y-79189125D01*
X234087229Y-78723268D01*
X234087005Y-78275627D01*
X234086774Y-77845910D01*
X234086535Y-77433826D01*
X234086288Y-77039084D01*
X234086033Y-76661392D01*
X234085770Y-76300460D01*
X234085497Y-75955996D01*
X234085215Y-75627708D01*
X234084923Y-75315306D01*
X234084621Y-75018499D01*
X234084307Y-74736994D01*
X234083983Y-74470501D01*
X234083647Y-74218729D01*
X234083299Y-73981386D01*
X234082938Y-73758182D01*
X234082565Y-73548824D01*
X234082178Y-73353022D01*
X234081777Y-73170484D01*
X234081362Y-73000919D01*
X234080933Y-72844036D01*
X234080489Y-72699544D01*
X234080029Y-72567151D01*
X234079553Y-72446566D01*
X234079061Y-72337498D01*
X234078553Y-72239656D01*
X234078027Y-72152748D01*
X234077484Y-72076483D01*
X234076922Y-72010570D01*
X234076343Y-71954718D01*
X234075744Y-71908636D01*
X234075126Y-71872031D01*
X234074489Y-71844614D01*
X234073831Y-71826092D01*
X234073153Y-71816174D01*
X234072104Y-71807519D01*
X234035940Y-71557947D01*
X233989766Y-71323138D01*
X233932628Y-71099760D01*
X233863569Y-70884482D01*
X233781637Y-70673970D01*
X233685874Y-70464894D01*
X233667377Y-70427725D01*
X233555690Y-70221458D01*
X233435824Y-70030869D01*
X233305354Y-69852604D01*
X233161859Y-69683310D01*
X233002916Y-69519633D01*
X232917048Y-69439644D01*
X232722777Y-69278917D01*
X232515254Y-69133275D01*
X232294905Y-69002880D01*
X232062156Y-68887896D01*
X231817433Y-68788487D01*
X231561162Y-68704817D01*
X231293768Y-68637049D01*
X231015678Y-68585347D01*
X230727317Y-68549875D01*
X230429112Y-68530795D01*
X230245968Y-68526847D01*
X229937223Y-68532545D01*
X229639248Y-68554058D01*
X229352390Y-68591304D01*
X229076996Y-68644199D01*
X228813410Y-68712660D01*
X228561980Y-68796604D01*
X228323051Y-68895949D01*
X228096969Y-69010612D01*
X227884082Y-69140509D01*
X227828552Y-69177949D01*
X227749898Y-69233077D01*
X227680118Y-69285395D01*
X227614798Y-69338552D01*
X227549521Y-69396201D01*
X227479871Y-69461991D01*
X227401432Y-69539576D01*
X227270436Y-69678287D01*
X227109768Y-69871757D01*
X226965560Y-70074941D01*
X226837119Y-70289021D01*
X226723752Y-70515179D01*
X226624765Y-70754596D01*
X226539465Y-71008454D01*
X226534221Y-71026037D01*
X226499761Y-71151169D01*
X226470412Y-71277250D01*
X226445237Y-71409110D01*
X226423301Y-71551581D01*
X226403668Y-71709494D01*
X226403625Y-71709880D01*
X226402747Y-71718460D01*
X226401898Y-71728415D01*
X226401077Y-71740088D01*
X226400285Y-71753826D01*
X226399520Y-71769972D01*
X226398781Y-71788870D01*
X226398069Y-71810866D01*
X226397383Y-71836303D01*
X226396721Y-71865526D01*
X226396084Y-71898880D01*
X226395471Y-71936708D01*
X226394880Y-71979356D01*
X226394313Y-72027168D01*
X226393768Y-72080488D01*
X226393244Y-72139661D01*
X226392741Y-72205032D01*
X226392259Y-72276944D01*
X226391796Y-72355742D01*
X226391352Y-72441770D01*
X226390928Y-72535374D01*
X226390521Y-72636897D01*
X226390131Y-72746685D01*
X226389758Y-72865081D01*
X226389402Y-72992429D01*
X226389061Y-73129075D01*
X226388736Y-73275363D01*
X226388424Y-73431637D01*
X226388127Y-73598242D01*
X226387843Y-73775522D01*
X226387572Y-73963822D01*
X226387313Y-74163485D01*
X226387066Y-74374858D01*
X226386830Y-74598283D01*
X226386604Y-74834106D01*
X226386388Y-75082671D01*
X226386181Y-75344322D01*
X226385983Y-75619404D01*
X226385793Y-75908261D01*
X226385610Y-76211238D01*
X226385435Y-76528679D01*
X226385265Y-76860929D01*
X226385102Y-77208333D01*
X226384943Y-77571233D01*
X226384790Y-77949976D01*
X226384640Y-78344905D01*
X226384494Y-78756366D01*
X226384350Y-79184701D01*
X226384209Y-79630257D01*
X226384069Y-80093377D01*
X226383931Y-80574405D01*
X226383793Y-81073687D01*
X226383655Y-81591567D01*
X226383516Y-82128389D01*
X226383376Y-82684497D01*
X226383234Y-83260237D01*
X226383090Y-83855952D01*
X226380208Y-95844929D01*
X225001060Y-96331782D01*
X224867518Y-96378924D01*
X224707575Y-96435385D01*
X224552575Y-96490102D01*
X224403701Y-96542655D01*
X224262140Y-96592628D01*
X224129075Y-96639601D01*
X224005692Y-96683157D01*
X223893176Y-96722876D01*
X223792712Y-96758341D01*
X223705484Y-96789133D01*
X223632678Y-96814835D01*
X223575478Y-96835027D01*
X223535069Y-96849292D01*
X223512636Y-96857211D01*
X223403360Y-96895787D01*
X223408552Y-95136047D01*
X224719192Y-94673501D01*
X224724832Y-83331198D01*
X224724903Y-83188921D01*
X224725210Y-82585197D01*
X224725517Y-82001452D01*
X224725824Y-81437410D01*
X224726133Y-80892794D01*
X224726442Y-80367326D01*
X224726753Y-79860730D01*
X224727066Y-79372730D01*
X224727382Y-78903048D01*
X224727700Y-78451407D01*
X224728022Y-78017531D01*
X224728348Y-77601143D01*
X224728678Y-77201966D01*
X224729012Y-76819724D01*
X224729352Y-76454138D01*
X224729697Y-76104934D01*
X224730048Y-75771833D01*
X224730405Y-75454560D01*
X224730770Y-75152836D01*
X224731141Y-74866386D01*
X224731520Y-74594933D01*
X224731907Y-74338199D01*
X224732303Y-74095908D01*
X224732708Y-73867784D01*
X224733122Y-73653549D01*
X224733545Y-73452926D01*
X224733979Y-73265639D01*
X224734424Y-73091410D01*
X224734880Y-72929964D01*
X224735347Y-72781023D01*
X224735827Y-72644310D01*
X224736318Y-72519549D01*
X224736823Y-72406463D01*
X224737341Y-72304775D01*
X224737872Y-72214208D01*
X224738418Y-72134485D01*
X224738978Y-72065330D01*
X224739553Y-72006465D01*
X224740143Y-71957615D01*
X224740750Y-71918501D01*
X224741372Y-71888848D01*
X224742011Y-71868378D01*
X224742668Y-71856814D01*
X224757594Y-71703049D01*
X224778145Y-71516742D01*
X224800423Y-71344760D01*
X224825106Y-71183706D01*
X224852870Y-71030183D01*
X224884393Y-70880792D01*
X224920352Y-70732138D01*
X224961424Y-70580822D01*
X225008286Y-70423446D01*
X225061616Y-70256614D01*
X225134740Y-70049108D01*
X225234882Y-69804852D01*
X225348224Y-69568776D01*
X225476921Y-69336453D01*
X225623130Y-69103454D01*
X225646971Y-69067713D01*
X225738083Y-68935682D01*
X225827014Y-68814980D01*
X225917524Y-68701004D01*
X226013377Y-68589151D01*
X226118332Y-68474820D01*
X226236151Y-68353408D01*
X226324020Y-68266694D01*
X226558128Y-68053108D01*
X226800318Y-67857173D01*
X227052499Y-67677492D01*
X227316581Y-67512671D01*
X227594472Y-67361316D01*
X227730818Y-67294379D01*
X228035271Y-67161368D01*
X228347590Y-67047087D01*
X228667744Y-66951545D01*
X228995706Y-66874749D01*
X229331445Y-66816707D01*
X229674932Y-66777429D01*
X229798491Y-66767979D01*
X230147147Y-66754214D01*
X230491610Y-66759689D01*
G37*
X230491610Y-66759689D02*
X230831336Y-66784240D01*
X231165782Y-66827703D01*
X231494403Y-66889912D01*
X231816656Y-66970703D01*
X232131997Y-67069910D01*
X232439882Y-67187369D01*
X232739766Y-67322915D01*
X233031106Y-67476382D01*
X233313358Y-67647607D01*
X233585978Y-67836423D01*
X233848422Y-68042667D01*
X233882303Y-68071528D01*
X233954935Y-68136092D01*
X234035159Y-68210263D01*
X234119163Y-68290334D01*
X234203135Y-68372596D01*
X234283263Y-68453342D01*
X234355734Y-68528865D01*
X234416737Y-68595454D01*
X234532923Y-68730083D01*
X234719788Y-68964388D01*
X234889386Y-69201778D01*
X235042181Y-69443452D01*
X235178637Y-69690609D01*
X235299219Y-69944449D01*
X235404390Y-70206172D01*
X235494615Y-70476977D01*
X235570358Y-70758063D01*
X235632083Y-71050631D01*
X235680255Y-71355879D01*
X235715336Y-71675007D01*
X235737793Y-72009214D01*
X235738165Y-72019204D01*
X235738808Y-72047494D01*
X235739423Y-72089374D01*
X235740013Y-72145042D01*
X235740576Y-72214697D01*
X235741113Y-72298536D01*
X235741625Y-72396758D01*
X235742110Y-72509559D01*
X235742570Y-72637139D01*
X235743004Y-72779694D01*
X235743413Y-72937424D01*
X235743797Y-73110525D01*
X235744156Y-73299196D01*
X235744490Y-73503635D01*
X235744799Y-73724040D01*
X235745084Y-73960608D01*
X235745344Y-74213537D01*
X235745580Y-74483026D01*
X235745792Y-74769272D01*
X235745980Y-75072474D01*
X235746145Y-75392829D01*
X235746285Y-75730534D01*
X235746402Y-76085789D01*
X235746496Y-76458791D01*
X235746567Y-76849738D01*
X235746615Y-77258827D01*
X235746639Y-77686257D01*
X235746641Y-78132226D01*
X235746621Y-78596932D01*
X235746578Y-79080572D01*
X235746513Y-79583344D01*
X235746426Y-80105447D01*
X235746316Y-80647078D01*
X235746185Y-81208435D01*
X235746033Y-81789716D01*
X235745859Y-82391120D01*
X235742792Y-92539345D01*
X234924971Y-92827980D01*
X234834918Y-92859746D01*
X234715219Y-92901918D01*
X234602032Y-92941737D01*
X234496761Y-92978711D01*
X234400812Y-93012350D01*
X234315589Y-93042161D01*
X234242499Y-93067654D01*
X234182945Y-93088337D01*
X234138334Y-93103719D01*
X234110069Y-93113309D01*
X234099557Y-93116614D01*
X234099380Y-93113787D01*
X234099043Y-93093129D01*
X234098704Y-93052794D01*
X234098363Y-92993204D01*
X234098021Y-92914779D01*
X234097677Y-92817942D01*
X234097332Y-92703114D01*
X234096988Y-92570714D01*
X234096643Y-92421165D01*
X234096300Y-92254888D01*
X234095957Y-92072303D01*
X234095616Y-91873832D01*
X234095276Y-91659897D01*
X234094939Y-91430917D01*
X234094605Y-91187315D01*
X234094274Y-90929511D01*
X234093947Y-90657927D01*
X234093624Y-90372983D01*
X234093305Y-90075101D01*
X234092991Y-89764702D01*
X234092683Y-89442207D01*
X234092380Y-89108038D01*
X234092084Y-88762614D01*
X234091794Y-88406359D01*
X234091512Y-88039691D01*
X234091237Y-87663034D01*
X234090969Y-87276807D01*
X234090711Y-86881432D01*
X234090461Y-86477331D01*
X234090220Y-86064924D01*
X234089990Y-85644632D01*
X234089769Y-85216876D01*
X234089559Y-84782079D01*
X234089360Y-84340660D01*
X234089172Y-83893041D01*
X234088996Y-83439643D01*
X234088832Y-82980887D01*
X234088681Y-82517194D01*
X234088640Y-82383100D01*
X234088452Y-81801834D01*
X234088261Y-81240531D01*
X234088065Y-80698900D01*
X234087865Y-80176650D01*
X234087659Y-79673488D01*
X234087447Y-79189125D01*
X234087229Y-78723268D01*
X234087005Y-78275627D01*
X234086774Y-77845910D01*
X234086535Y-77433826D01*
X234086288Y-77039084D01*
X234086033Y-76661392D01*
X234085770Y-76300460D01*
X234085497Y-75955996D01*
X234085215Y-75627708D01*
X234084923Y-75315306D01*
X234084621Y-75018499D01*
X234084307Y-74736994D01*
X234083983Y-74470501D01*
X234083647Y-74218729D01*
X234083299Y-73981386D01*
X234082938Y-73758182D01*
X234082565Y-73548824D01*
X234082178Y-73353022D01*
X234081777Y-73170484D01*
X234081362Y-73000919D01*
X234080933Y-72844036D01*
X234080489Y-72699544D01*
X234080029Y-72567151D01*
X234079553Y-72446566D01*
X234079061Y-72337498D01*
X234078553Y-72239656D01*
X234078027Y-72152748D01*
X234077484Y-72076483D01*
X234076922Y-72010570D01*
X234076343Y-71954718D01*
X234075744Y-71908636D01*
X234075126Y-71872031D01*
X234074489Y-71844614D01*
X234073831Y-71826092D01*
X234073153Y-71816174D01*
X234072104Y-71807519D01*
X234035940Y-71557947D01*
X233989766Y-71323138D01*
X233932628Y-71099760D01*
X233863569Y-70884482D01*
X233781637Y-70673970D01*
X233685874Y-70464894D01*
X233667377Y-70427725D01*
X233555690Y-70221458D01*
X233435824Y-70030869D01*
X233305354Y-69852604D01*
X233161859Y-69683310D01*
X233002916Y-69519633D01*
X232917048Y-69439644D01*
X232722777Y-69278917D01*
X232515254Y-69133275D01*
X232294905Y-69002880D01*
X232062156Y-68887896D01*
X231817433Y-68788487D01*
X231561162Y-68704817D01*
X231293768Y-68637049D01*
X231015678Y-68585347D01*
X230727317Y-68549875D01*
X230429112Y-68530795D01*
X230245968Y-68526847D01*
X229937223Y-68532545D01*
X229639248Y-68554058D01*
X229352390Y-68591304D01*
X229076996Y-68644199D01*
X228813410Y-68712660D01*
X228561980Y-68796604D01*
X228323051Y-68895949D01*
X228096969Y-69010612D01*
X227884082Y-69140509D01*
X227828552Y-69177949D01*
X227749898Y-69233077D01*
X227680118Y-69285395D01*
X227614798Y-69338552D01*
X227549521Y-69396201D01*
X227479871Y-69461991D01*
X227401432Y-69539576D01*
X227270436Y-69678287D01*
X227109768Y-69871757D01*
X226965560Y-70074941D01*
X226837119Y-70289021D01*
X226723752Y-70515179D01*
X226624765Y-70754596D01*
X226539465Y-71008454D01*
X226534221Y-71026037D01*
X226499761Y-71151169D01*
X226470412Y-71277250D01*
X226445237Y-71409110D01*
X226423301Y-71551581D01*
X226403668Y-71709494D01*
X226403625Y-71709880D01*
X226402747Y-71718460D01*
X226401898Y-71728415D01*
X226401077Y-71740088D01*
X226400285Y-71753826D01*
X226399520Y-71769972D01*
X226398781Y-71788870D01*
X226398069Y-71810866D01*
X226397383Y-71836303D01*
X226396721Y-71865526D01*
X226396084Y-71898880D01*
X226395471Y-71936708D01*
X226394880Y-71979356D01*
X226394313Y-72027168D01*
X226393768Y-72080488D01*
X226393244Y-72139661D01*
X226392741Y-72205032D01*
X226392259Y-72276944D01*
X226391796Y-72355742D01*
X226391352Y-72441770D01*
X226390928Y-72535374D01*
X226390521Y-72636897D01*
X226390131Y-72746685D01*
X226389758Y-72865081D01*
X226389402Y-72992429D01*
X226389061Y-73129075D01*
X226388736Y-73275363D01*
X226388424Y-73431637D01*
X226388127Y-73598242D01*
X226387843Y-73775522D01*
X226387572Y-73963822D01*
X226387313Y-74163485D01*
X226387066Y-74374858D01*
X226386830Y-74598283D01*
X226386604Y-74834106D01*
X226386388Y-75082671D01*
X226386181Y-75344322D01*
X226385983Y-75619404D01*
X226385793Y-75908261D01*
X226385610Y-76211238D01*
X226385435Y-76528679D01*
X226385265Y-76860929D01*
X226385102Y-77208333D01*
X226384943Y-77571233D01*
X226384790Y-77949976D01*
X226384640Y-78344905D01*
X226384494Y-78756366D01*
X226384350Y-79184701D01*
X226384209Y-79630257D01*
X226384069Y-80093377D01*
X226383931Y-80574405D01*
X226383793Y-81073687D01*
X226383655Y-81591567D01*
X226383516Y-82128389D01*
X226383376Y-82684497D01*
X226383234Y-83260237D01*
X226383090Y-83855952D01*
X226380208Y-95844929D01*
X225001060Y-96331782D01*
X224867518Y-96378924D01*
X224707575Y-96435385D01*
X224552575Y-96490102D01*
X224403701Y-96542655D01*
X224262140Y-96592628D01*
X224129075Y-96639601D01*
X224005692Y-96683157D01*
X223893176Y-96722876D01*
X223792712Y-96758341D01*
X223705484Y-96789133D01*
X223632678Y-96814835D01*
X223575478Y-96835027D01*
X223535069Y-96849292D01*
X223512636Y-96857211D01*
X223403360Y-96895787D01*
X223408552Y-95136047D01*
X224719192Y-94673501D01*
X224724832Y-83331198D01*
X224724903Y-83188921D01*
X224725210Y-82585197D01*
X224725517Y-82001452D01*
X224725824Y-81437410D01*
X224726133Y-80892794D01*
X224726442Y-80367326D01*
X224726753Y-79860730D01*
X224727066Y-79372730D01*
X224727382Y-78903048D01*
X224727700Y-78451407D01*
X224728022Y-78017531D01*
X224728348Y-77601143D01*
X224728678Y-77201966D01*
X224729012Y-76819724D01*
X224729352Y-76454138D01*
X224729697Y-76104934D01*
X224730048Y-75771833D01*
X224730405Y-75454560D01*
X224730770Y-75152836D01*
X224731141Y-74866386D01*
X224731520Y-74594933D01*
X224731907Y-74338199D01*
X224732303Y-74095908D01*
X224732708Y-73867784D01*
X224733122Y-73653549D01*
X224733545Y-73452926D01*
X224733979Y-73265639D01*
X224734424Y-73091410D01*
X224734880Y-72929964D01*
X224735347Y-72781023D01*
X224735827Y-72644310D01*
X224736318Y-72519549D01*
X224736823Y-72406463D01*
X224737341Y-72304775D01*
X224737872Y-72214208D01*
X224738418Y-72134485D01*
X224738978Y-72065330D01*
X224739553Y-72006465D01*
X224740143Y-71957615D01*
X224740750Y-71918501D01*
X224741372Y-71888848D01*
X224742011Y-71868378D01*
X224742668Y-71856814D01*
X224757594Y-71703049D01*
X224778145Y-71516742D01*
X224800423Y-71344760D01*
X224825106Y-71183706D01*
X224852870Y-71030183D01*
X224884393Y-70880792D01*
X224920352Y-70732138D01*
X224961424Y-70580822D01*
X225008286Y-70423446D01*
X225061616Y-70256614D01*
X225134740Y-70049108D01*
X225234882Y-69804852D01*
X225348224Y-69568776D01*
X225476921Y-69336453D01*
X225623130Y-69103454D01*
X225646971Y-69067713D01*
X225738083Y-68935682D01*
X225827014Y-68814980D01*
X225917524Y-68701004D01*
X226013377Y-68589151D01*
X226118332Y-68474820D01*
X226236151Y-68353408D01*
X226324020Y-68266694D01*
X226558128Y-68053108D01*
X226800318Y-67857173D01*
X227052499Y-67677492D01*
X227316581Y-67512671D01*
X227594472Y-67361316D01*
X227730818Y-67294379D01*
X228035271Y-67161368D01*
X228347590Y-67047087D01*
X228667744Y-66951545D01*
X228995706Y-66874749D01*
X229331445Y-66816707D01*
X229674932Y-66777429D01*
X229798491Y-66767979D01*
X230147147Y-66754214D01*
X230491610Y-66759689D01*
%LPC*%
D12*
X84725000Y-145000000D03*
D13*
X87265000Y-145000000D03*
X84725000Y-147540000D03*
X87265000Y-147540000D03*
X84725000Y-150080000D03*
X87265000Y-150080000D03*
X84725000Y-152620000D03*
X87265000Y-152620000D03*
X84725000Y-155160000D03*
X87265000Y-155160000D03*
X84725000Y-157700000D03*
X87265000Y-157700000D03*
X84725000Y-160240000D03*
X87265000Y-160240000D03*
D12*
X104350000Y-165500000D03*
D13*
X106890000Y-165500000D03*
D12*
X68375000Y-145000000D03*
D13*
X70915000Y-145000000D03*
X68375000Y-147540000D03*
X70915000Y-147540000D03*
X68375000Y-150080000D03*
X70915000Y-150080000D03*
X68375000Y-152620000D03*
X70915000Y-152620000D03*
X68375000Y-155160000D03*
X70915000Y-155160000D03*
X68375000Y-157700000D03*
X70915000Y-157700000D03*
X68375000Y-160240000D03*
X70915000Y-160240000D03*
D12*
X52075000Y-145000000D03*
D13*
X54615000Y-145000000D03*
X52075000Y-147540000D03*
X54615000Y-147540000D03*
X52075000Y-150080000D03*
X54615000Y-150080000D03*
X52075000Y-152620000D03*
X54615000Y-152620000D03*
X52075000Y-155160000D03*
X54615000Y-155160000D03*
X52075000Y-157700000D03*
X54615000Y-157700000D03*
X52075000Y-160240000D03*
X54615000Y-160240000D03*
D12*
X76525000Y-145000000D03*
D13*
X79065000Y-145000000D03*
X76525000Y-147540000D03*
X79065000Y-147540000D03*
X76525000Y-150080000D03*
X79065000Y-150080000D03*
X76525000Y-152620000D03*
X79065000Y-152620000D03*
X76525000Y-155160000D03*
X79065000Y-155160000D03*
X76525000Y-157700000D03*
X79065000Y-157700000D03*
X76525000Y-160240000D03*
X79065000Y-160240000D03*
D12*
X60225000Y-145000000D03*
D13*
X62765000Y-145000000D03*
X60225000Y-147540000D03*
X62765000Y-147540000D03*
X60225000Y-150080000D03*
X62765000Y-150080000D03*
X60225000Y-152620000D03*
X62765000Y-152620000D03*
X60225000Y-155160000D03*
X62765000Y-155160000D03*
X60225000Y-157700000D03*
X62765000Y-157700000D03*
X60225000Y-160240000D03*
X62765000Y-160240000D03*
D14*
X99800000Y-156800000D03*
X99800000Y-156300000D03*
X99800000Y-155800000D03*
X99800000Y-155300000D03*
X99800000Y-154800000D03*
X99800000Y-154300000D03*
X99800000Y-153800000D03*
X99800000Y-153300000D03*
X99800000Y-152800000D03*
X99800000Y-152300000D03*
X99800000Y-151800000D03*
X99800000Y-151300000D03*
X99800000Y-150800000D03*
X99800000Y-150300000D03*
X99800000Y-149800000D03*
X99800000Y-149300000D03*
X99800000Y-148800000D03*
X99800000Y-148300000D03*
X99800000Y-147800000D03*
D15*
X100600000Y-145050000D03*
X100600000Y-159550000D03*
D16*
X106600000Y-145050000D03*
X106600000Y-159550000D03*
M02*
