G04 #@! TF.GenerationSoftware,KiCad,Pcbnew,(6.0.0)*
G04 #@! TF.CreationDate,2022-01-24T11:54:52+01:00*
G04 #@! TF.ProjectId,PUTM_EV_Front_Box_2022_P_ytka_Pozioma,5055544d-5f45-4565-9f46-726f6e745f42,rev?*
G04 #@! TF.SameCoordinates,Original*
G04 #@! TF.FileFunction,Soldermask,Top*
G04 #@! TF.FilePolarity,Negative*
%FSLAX46Y46*%
G04 Gerber Fmt 4.6, Leading zero omitted, Abs format (unit mm)*
G04 Created by KiCad (PCBNEW (6.0.0)) date 2022-01-24 11:54:52*
%MOMM*%
%LPD*%
G01*
G04 APERTURE LIST*
G04 Aperture macros list*
%AMRoundRect*
0 Rectangle with rounded corners*
0 $1 Rounding radius*
0 $2 $3 $4 $5 $6 $7 $8 $9 X,Y pos of 4 corners*
0 Add a 4 corners polygon primitive as box body*
4,1,4,$2,$3,$4,$5,$6,$7,$8,$9,$2,$3,0*
0 Add four circle primitives for the rounded corners*
1,1,$1+$1,$2,$3*
1,1,$1+$1,$4,$5*
1,1,$1+$1,$6,$7*
1,1,$1+$1,$8,$9*
0 Add four rect primitives between the rounded corners*
20,1,$1+$1,$2,$3,$4,$5,0*
20,1,$1+$1,$4,$5,$6,$7,0*
20,1,$1+$1,$6,$7,$8,$9,0*
20,1,$1+$1,$8,$9,$2,$3,0*%
G04 Aperture macros list end*
%ADD10R,1.700000X1.700000*%
%ADD11O,1.700000X1.700000*%
%ADD12RoundRect,0.250000X-0.600000X-0.600000X0.600000X-0.600000X0.600000X0.600000X-0.600000X0.600000X0*%
%ADD13C,1.700000*%
%ADD14C,3.800000*%
G04 APERTURE END LIST*
D10*
X116150000Y-107597154D03*
D11*
X116150000Y-110137154D03*
X118690000Y-107597154D03*
X118690000Y-110137154D03*
X121230000Y-107597154D03*
X121230000Y-110137154D03*
X123770000Y-107597154D03*
X123770000Y-110137154D03*
X126310000Y-107597154D03*
X126310000Y-110137154D03*
X128850000Y-107597154D03*
X128850000Y-110137154D03*
X131390000Y-107597154D03*
X131390000Y-110137154D03*
X133930000Y-107597154D03*
X133930000Y-110137154D03*
X136470000Y-107597154D03*
X136470000Y-110137154D03*
X139010000Y-107597154D03*
X139010000Y-110137154D03*
D10*
X88360000Y-44697154D03*
D11*
X88360000Y-47237154D03*
X90900000Y-44697154D03*
X90900000Y-47237154D03*
X93440000Y-44697154D03*
X93440000Y-47237154D03*
X95980000Y-44697154D03*
X95980000Y-47237154D03*
X98520000Y-44697154D03*
X98520000Y-47237154D03*
X101060000Y-44697154D03*
X101060000Y-47237154D03*
X103600000Y-44697154D03*
X103600000Y-47237154D03*
X106140000Y-44697154D03*
X106140000Y-47237154D03*
X108680000Y-44697154D03*
X108680000Y-47237154D03*
X111220000Y-44697154D03*
X111220000Y-47237154D03*
X113760000Y-44697154D03*
X113760000Y-47237154D03*
X116300000Y-44697154D03*
X116300000Y-47237154D03*
X118840000Y-44697154D03*
X118840000Y-47237154D03*
X121380000Y-44697154D03*
X121380000Y-47237154D03*
X123920000Y-44697154D03*
X123920000Y-47237154D03*
X126460000Y-44697154D03*
X126460000Y-47237154D03*
X129000000Y-44697154D03*
X129000000Y-47237154D03*
X131540000Y-44697154D03*
X131540000Y-47237154D03*
X134080000Y-44697154D03*
X134080000Y-47237154D03*
X136620000Y-44697154D03*
X136620000Y-47237154D03*
D10*
X142970000Y-44687154D03*
D11*
X142970000Y-47227154D03*
X145510000Y-44687154D03*
X145510000Y-47227154D03*
X148050000Y-44687154D03*
X148050000Y-47227154D03*
X150590000Y-44687154D03*
X150590000Y-47227154D03*
X153130000Y-44687154D03*
X153130000Y-47227154D03*
X155670000Y-44687154D03*
X155670000Y-47227154D03*
X158210000Y-44687154D03*
X158210000Y-47227154D03*
X160750000Y-44687154D03*
X160750000Y-47227154D03*
X163290000Y-44687154D03*
X163290000Y-47227154D03*
X165830000Y-44687154D03*
X165830000Y-47227154D03*
D12*
X182570000Y-56837154D03*
D13*
X185110000Y-56837154D03*
X182570000Y-59377154D03*
X185110000Y-59377154D03*
X182570000Y-61917154D03*
X185110000Y-61917154D03*
X182570000Y-64457154D03*
X185110000Y-64457154D03*
X182570000Y-66997154D03*
X185110000Y-66997154D03*
X182570000Y-69537154D03*
X185110000Y-69537154D03*
X182570000Y-72077154D03*
X185110000Y-72077154D03*
X182570000Y-74617154D03*
X185110000Y-74617154D03*
X182570000Y-77157154D03*
X185110000Y-77157154D03*
X182570000Y-79697154D03*
X185110000Y-79697154D03*
X182570000Y-82237154D03*
X185110000Y-82237154D03*
X182570000Y-84777154D03*
X185110000Y-84777154D03*
X182570000Y-87317154D03*
X185110000Y-87317154D03*
X182570000Y-89857154D03*
X185110000Y-89857154D03*
X182570000Y-92397154D03*
X185110000Y-92397154D03*
X182570000Y-94937154D03*
X185110000Y-94937154D03*
X182570000Y-97477154D03*
X185110000Y-97477154D03*
D14*
X204570000Y-42937154D03*
X81610000Y-109940154D03*
X81590000Y-44937154D03*
X204570000Y-111937154D03*
D10*
X197740000Y-57117154D03*
D11*
X200280000Y-57117154D03*
X197740000Y-59657154D03*
X200280000Y-59657154D03*
X197740000Y-62197154D03*
X200280000Y-62197154D03*
X197740000Y-64737154D03*
X200280000Y-64737154D03*
X197740000Y-67277154D03*
X200280000Y-67277154D03*
X197740000Y-69817154D03*
X200280000Y-69817154D03*
X197740000Y-72357154D03*
X200280000Y-72357154D03*
X197740000Y-74897154D03*
X200280000Y-74897154D03*
X197740000Y-77437154D03*
X200280000Y-77437154D03*
X197740000Y-79977154D03*
X200280000Y-79977154D03*
X197740000Y-82517154D03*
X200280000Y-82517154D03*
X197740000Y-85057154D03*
X200280000Y-85057154D03*
X197740000Y-87597154D03*
X200280000Y-87597154D03*
X197740000Y-90137154D03*
X200280000Y-90137154D03*
X197740000Y-92677154D03*
X200280000Y-92677154D03*
X197740000Y-95217154D03*
X200280000Y-95217154D03*
X197740000Y-97757154D03*
X200280000Y-97757154D03*
M02*
