%FSLAX45Y45*%
G04 Gerber Fmt 4.5, Leading zero omitted, Abs format (unit mm)*
G04 Created by KiCad (PCBNEW (6.0.0)) date 2022-01-24 11:55:10*
%MOMM*%
%LPD*%
G01*
G04 APERTURE LIST*
%TA.AperFunction,Profile*%
%ADD10C,0.050000*%
%TD*%
%ADD11C,0.200000*%
G04 APERTURE END LIST*
D10*
X7661000Y-11493715D02*
X7661000Y-3993715D01*
X7661000Y-11493715D02*
X8757000Y-11493715D01*
X20757000Y-11493715D02*
X8757000Y-11493715D01*
X7661000Y-3993715D02*
X8757000Y-3993715D01*
X8757000Y-3993715D02*
X20757000Y-3993715D01*
X20757000Y-3993715D02*
X20757000Y-11493715D01*
D11*
X7916119Y-11806691D02*
X7916119Y-11606691D01*
X7963738Y-11606691D01*
X7992309Y-11616215D01*
X8011357Y-11635263D01*
X8020881Y-11654311D01*
X8030405Y-11692406D01*
X8030405Y-11720977D01*
X8020881Y-11759072D01*
X8011357Y-11778120D01*
X7992309Y-11797168D01*
X7963738Y-11806691D01*
X7916119Y-11806691D01*
X8116119Y-11806691D02*
X8116119Y-11673358D01*
X8116119Y-11711453D02*
X8125643Y-11692406D01*
X8135167Y-11682882D01*
X8154214Y-11673358D01*
X8173262Y-11673358D01*
X8239928Y-11806691D02*
X8239928Y-11673358D01*
X8239928Y-11606691D02*
X8230405Y-11616215D01*
X8239928Y-11625739D01*
X8249452Y-11616215D01*
X8239928Y-11606691D01*
X8239928Y-11625739D01*
X8363738Y-11806691D02*
X8344690Y-11797168D01*
X8335167Y-11778120D01*
X8335167Y-11606691D01*
X8468500Y-11806691D02*
X8449452Y-11797168D01*
X8439929Y-11778120D01*
X8439929Y-11606691D01*
X8697071Y-11806691D02*
X8697071Y-11606691D01*
X8763738Y-11749549D01*
X8830405Y-11606691D01*
X8830405Y-11806691D01*
X9011357Y-11806691D02*
X9011357Y-11701930D01*
X9001833Y-11682882D01*
X8982786Y-11673358D01*
X8944690Y-11673358D01*
X8925643Y-11682882D01*
X9011357Y-11797168D02*
X8992310Y-11806691D01*
X8944690Y-11806691D01*
X8925643Y-11797168D01*
X8916119Y-11778120D01*
X8916119Y-11759072D01*
X8925643Y-11740025D01*
X8944690Y-11730501D01*
X8992310Y-11730501D01*
X9011357Y-11720977D01*
X9106595Y-11673358D02*
X9106595Y-11873358D01*
X9106595Y-11682882D02*
X9125643Y-11673358D01*
X9163738Y-11673358D01*
X9182786Y-11682882D01*
X9192310Y-11692406D01*
X9201833Y-11711453D01*
X9201833Y-11768596D01*
X9192310Y-11787644D01*
X9182786Y-11797168D01*
X9163738Y-11806691D01*
X9125643Y-11806691D01*
X9106595Y-11797168D01*
X9287548Y-11787644D02*
X9297071Y-11797168D01*
X9287548Y-11806691D01*
X9278024Y-11797168D01*
X9287548Y-11787644D01*
X9287548Y-11806691D01*
X9287548Y-11682882D02*
X9297071Y-11692406D01*
X9287548Y-11701930D01*
X9278024Y-11692406D01*
X9287548Y-11682882D01*
X9287548Y-11701930D01*
M02*
