M48
; DRILL file {KiCad (6.0.0)} date Mon Jan 24 11:55:09 2022
; FORMAT={-:-/ absolute / metric / decimal}
; #@! TF.CreationDate,2022-01-24T11:55:09+01:00
; #@! TF.GenerationSoftware,Kicad,Pcbnew,(6.0.0)
; #@! TF.FileFunction,Plated,1,4,PTH
FMAT,2
METRIC
; #@! TA.AperFunction,Plated,PTH,ViaDrill
T1C0.400
; #@! TA.AperFunction,Plated,PTH,ViaDrill
T2C0.600
; #@! TA.AperFunction,Plated,PTH,ComponentDrill
T3C1.000
; #@! TA.AperFunction,Plated,PTH,ComponentDrill
T4C2.200
%
G90
G05
T1
X83.07Y-51.937
X83.07Y-67.937
X83.07Y-77.437
X84.07Y-60.937
X84.07Y-104.437
X84.1Y-41.414
X84.57Y-94.437
X85.07Y-70.437
X85.07Y-84.437
X86.07Y-54.937
X86.57Y-61.937
X86.57Y-97.437
X87.07Y-79.437
X88.57Y-92.937
X90.57Y-73.937
X91.57Y-81.437
X92.57Y-87.437
X92.57Y-101.437
X93.07Y-108.437
X94.07Y-77.937
X96.07Y-94.937
X96.57Y-41.937
X96.57Y-81.937
X99.57Y-96.437
X100.07Y-86.437
X101.07Y-105.437
X101.07Y-110.437
X102.07Y-89.437
X104.07Y-101.937
X106.07Y-41.937
X106.07Y-90.937
X107.07Y-96.937
X108.07Y-93.937
X108.57Y-108.937
X112.57Y-101.937
X115.07Y-41.937
X118.07Y-101.437
X124.07Y-41.937
X132.07Y-41.937
X137.07Y-41.937
X140.47Y-41.337
X140.47Y-42.937
X140.47Y-44.537
X140.47Y-47.537
X140.47Y-48.937
X140.47Y-50.337
X140.47Y-51.837
X141.32Y-107.937
X141.32Y-108.937
X141.32Y-109.937
X142.07Y-53.537
X142.17Y-51.837
X142.32Y-107.937
X142.32Y-108.937
X142.32Y-109.937
X143.32Y-107.937
X143.32Y-108.937
X143.32Y-109.937
X143.87Y-51.837
X143.87Y-53.537
X144.32Y-107.937
X144.32Y-108.937
X144.32Y-109.937
X145.32Y-107.937
X145.32Y-108.937
X145.32Y-109.937
X145.67Y-51.837
X145.67Y-53.537
X147.82Y-51.837
X147.82Y-53.537
X150.22Y-51.887
X150.27Y-53.537
X153.17Y-53.537
X157.22Y-53.537
X163.07Y-53.537
X167.57Y-44.937
X167.57Y-46.937
X168.12Y-53.537
X169.57Y-44.937
X170.92Y-45.887
X172.57Y-44.937
X172.57Y-46.937
X175.57Y-44.937
X175.57Y-46.937
X178.57Y-44.937
X178.57Y-46.937
X181.57Y-44.937
X181.57Y-46.937
X183.77Y-53.537
X184.57Y-44.937
X184.57Y-46.937
X184.87Y-53.537
X184.87Y-54.537
X185.87Y-53.537
X185.87Y-54.537
X186.97Y-53.537
X186.97Y-54.537
X186.97Y-55.637
X186.97Y-56.737
X186.97Y-57.837
X186.97Y-58.937
X186.97Y-59.937
X186.97Y-61.137
X186.97Y-62.237
X186.97Y-63.337
X186.97Y-64.537
X187.57Y-44.937
X187.57Y-46.937
X187.97Y-53.537
X187.97Y-54.537
X187.97Y-55.637
X188.07Y-56.737
X188.07Y-57.837
X188.07Y-58.937
X188.07Y-60.037
X188.07Y-61.137
X188.07Y-62.237
X188.07Y-63.337
X188.07Y-64.537
X188.52Y-71.487
X188.67Y-80.787
X189.17Y-63.337
X189.17Y-64.537
X189.32Y-74.437
X189.32Y-86.437
X189.57Y-78.187
X190.07Y-93.287
X190.57Y-44.937
X190.57Y-46.937
X191.35Y-51.9
X191.8Y-59.7
X191.85Y-50.8
X192.57Y-46.937
X192.75Y-49.75
X192.95Y-60.25
X193.57Y-90.937
X193.85Y-60.748
X195.07Y-56.993
X195.07Y-60.041
X197.57Y-45.687
X197.87Y-48.637
X197.87Y-50.937
X197.87Y-53.637
X200.47Y-48.537
X200.57Y-50.937
X200.57Y-53.537
X201.07Y-113.337
X201.57Y-41.437
X205.67Y-108.237
X206.07Y-45.937
T2
X189.77Y-98.487
X190.42Y-89.837
T3
X88.36Y-44.697
X88.36Y-47.237
X90.9Y-44.697
X90.9Y-47.237
X93.44Y-44.697
X93.44Y-47.237
X95.98Y-44.697
X95.98Y-47.237
X98.52Y-44.697
X98.52Y-47.237
X101.06Y-44.697
X101.06Y-47.237
X103.6Y-44.697
X103.6Y-47.237
X106.14Y-44.697
X106.14Y-47.237
X108.68Y-44.697
X108.68Y-47.237
X111.22Y-44.697
X111.22Y-47.237
X113.76Y-44.697
X113.76Y-47.237
X116.15Y-107.597
X116.15Y-110.137
X116.3Y-44.697
X116.3Y-47.237
X118.69Y-107.597
X118.69Y-110.137
X118.84Y-44.697
X118.84Y-47.237
X121.23Y-107.597
X121.23Y-110.137
X121.38Y-44.697
X121.38Y-47.237
X123.77Y-107.597
X123.77Y-110.137
X123.92Y-44.697
X123.92Y-47.237
X126.31Y-107.597
X126.31Y-110.137
X126.46Y-44.697
X126.46Y-47.237
X128.85Y-107.597
X128.85Y-110.137
X129.0Y-44.697
X129.0Y-47.237
X131.39Y-107.597
X131.39Y-110.137
X131.54Y-44.697
X131.54Y-47.237
X133.93Y-107.597
X133.93Y-110.137
X134.08Y-44.697
X134.08Y-47.237
X136.47Y-107.597
X136.47Y-110.137
X136.62Y-44.697
X136.62Y-47.237
X139.01Y-107.597
X139.01Y-110.137
X142.97Y-44.687
X142.97Y-47.227
X145.51Y-44.687
X145.51Y-47.227
X148.05Y-44.687
X148.05Y-47.227
X150.59Y-44.687
X150.59Y-47.227
X153.13Y-44.687
X153.13Y-47.227
X155.67Y-44.687
X155.67Y-47.227
X158.21Y-44.687
X158.21Y-47.227
X160.75Y-44.687
X160.75Y-47.227
X163.29Y-44.687
X163.29Y-47.227
X165.83Y-44.687
X165.83Y-47.227
X182.57Y-56.837
X182.57Y-59.377
X182.57Y-61.917
X182.57Y-64.457
X182.57Y-66.997
X182.57Y-69.537
X182.57Y-72.077
X182.57Y-74.617
X182.57Y-77.157
X182.57Y-79.697
X182.57Y-82.237
X182.57Y-84.777
X182.57Y-87.317
X182.57Y-89.857
X182.57Y-92.397
X182.57Y-94.937
X182.57Y-97.477
X185.11Y-56.837
X185.11Y-59.377
X185.11Y-61.917
X185.11Y-64.457
X185.11Y-66.997
X185.11Y-69.537
X185.11Y-72.077
X185.11Y-74.617
X185.11Y-77.157
X185.11Y-79.697
X185.11Y-82.237
X185.11Y-84.777
X185.11Y-87.317
X185.11Y-89.857
X185.11Y-92.397
X185.11Y-94.937
X185.11Y-97.477
X197.74Y-57.117
X197.74Y-59.657
X197.74Y-62.197
X197.74Y-64.737
X197.74Y-67.277
X197.74Y-69.817
X197.74Y-72.357
X197.74Y-74.897
X197.74Y-77.437
X197.74Y-79.977
X197.74Y-82.517
X197.74Y-85.057
X197.74Y-87.597
X197.74Y-90.137
X197.74Y-92.677
X197.74Y-95.217
X197.74Y-97.757
X200.28Y-57.117
X200.28Y-59.657
X200.28Y-62.197
X200.28Y-64.737
X200.28Y-67.277
X200.28Y-69.817
X200.28Y-72.357
X200.28Y-74.897
X200.28Y-77.437
X200.28Y-79.977
X200.28Y-82.517
X200.28Y-85.057
X200.28Y-87.597
X200.28Y-90.137
X200.28Y-92.677
X200.28Y-95.217
X200.28Y-97.757
T4
X81.59Y-44.937
X81.61Y-109.94
X204.57Y-42.937
X204.57Y-111.937
T0
M30
